<?xml version="1.0" encoding="UTF-8"?>
<svg version="1.1" xmlns="http://www.w3.org/2000/svg" width="1024" height="1024">
<path d="M0 0 C337.92 0 675.84 0 1024 0 C1024 337.92 1024 675.84 1024 1024 C686.08 1024 348.16 1024 0 1024 C0 686.08 0 348.16 0 0 Z " fill="#FAF7F2" transform="translate(0,0)"/>
<path d="M0 0 C2.75329021 1.79562405 4.52627461 3.05254922 6 6 C6.61135962 11.37996467 5.14925852 13.71775861 2 18 C0.31092697 19.85050863 -1.42935966 21.6550946 -3.20825195 23.41943359 C-3.9676709 24.17688118 -3.9676709 24.17688118 -4.74243164 24.94963074 C-6.40314635 26.60389986 -8.07072953 28.25106315 -9.73828125 29.8984375 C-10.90458028 31.0584553 -12.07035845 32.21899699 -13.23564148 33.3800354 C-16.29800014 36.4291316 -19.3658772 39.47260824 -22.4354248 42.51446533 C-27.33785001 47.37369104 -32.23360458 52.23961191 -37.12596703 57.10896683 C-38.82450043 58.79738758 -40.5264661 60.48228839 -42.22883606 62.1668396 C-47.1523515 67.0523079 -51.9679133 71.97000392 -56.47483826 77.24874878 C-58.95960248 80.10185364 -61.64088363 82.74562441 -64.3359375 85.3984375 C-64.90075836 85.95947174 -65.46557922 86.52050598 -66.04751587 87.09854126 C-67.82088407 88.85986308 -69.59751167 90.61783688 -71.375 92.375 C-73.73984331 94.71327915 -76.10136242 97.05484369 -78.4609375 99.3984375 C-79.27333389 100.19838638 -79.27333389 100.19838638 -80.10214233 101.01449585 C-83.61633693 104.50537479 -84.90685178 105.84496203 -85.3125 110.875 C-85.24901239 113.78484862 -85.05299293 114.90783838 -83.5625 117.5 C-79.6182259 119.80884337 -76.43438411 119.98370028 -72 119 C-69.99534574 117.69585058 -69.99534574 117.69585058 -68.18774414 115.93334961 C-67.49705841 115.29734833 -66.80637268 114.66134705 -66.09475708 114.006073 C-62.77768989 110.82943787 -59.48879964 107.63157894 -56.24609375 104.37890625 C-55.54154556 103.67531479 -54.83699738 102.97172333 -54.11109924 102.24681091 C-52.63346633 100.76985352 -51.15707543 99.29165258 -49.68188477 97.81225586 C-47.44333519 95.56834915 -45.19949527 93.32983296 -42.95507812 91.09179688 C-41.51009596 89.64615382 -40.06542408 88.20020055 -38.62109375 86.75390625 C-37.96048447 86.0953212 -37.29987518 85.43673615 -36.61924744 84.75819397 C-33.52175501 81.64530936 -30.52567801 78.49492348 -27.66357422 75.16357422 C-23.27044916 70.08084659 -18.51535609 65.37208489 -13.76171875 60.62890625 C-12.78987816 59.65639044 -11.81818592 58.68372636 -10.84663391 57.71092224 C-8.82702612 55.68985196 -6.80565033 53.670572 -4.78295898 51.65258789 C-2.18924389 49.06461541 0.39989333 46.47211636 2.98775959 43.87829685 C4.98561979 41.87683082 6.98584582 39.87774291 8.98680687 37.87937737 C10.40737545 36.45979922 11.82593196 35.03820852 13.24446106 33.61659241 C14.53171333 32.33406837 14.53171333 32.33406837 15.8449707 31.02563477 C16.60107132 30.27032974 17.35717194 29.51502472 18.13618469 28.73683167 C21.25207756 25.83322776 23.72189347 25.66849449 27.9609375 25.70703125 C31.13134567 26.16254967 32.8192402 27.75315657 35 30 C36.43304064 32.86608129 36.30644155 34.81300783 36 38 C32.77537985 43.76053624 28.16396704 48.09796085 23.49951172 52.71166992 C22.64382599 53.56604141 21.78814026 54.4204129 20.90652466 55.30067444 C19.05355191 57.14939373 17.19888371 58.99619405 15.34096909 60.83992577 C12.40297268 63.75556265 9.47216652 66.67835718 6.54226685 69.60212708 C1.90908361 74.22395512 -2.7287529 78.84108087 -7.36866081 83.45615703 C-15.68446919 91.72754256 -23.99462394 100.00459917 -32.2996043 108.28685647 C-35.21341154 111.19225977 -38.13000284 114.09483072 -41.04887033 116.99514997 C-43.287234 119.22037674 -45.52247695 121.44873541 -47.75830078 123.67651367 C-48.56769104 124.47916656 -49.3770813 125.28181946 -50.21099854 126.10879517 C-50.94841278 126.84469376 -51.68582703 127.58059235 -52.44558716 128.33879089 C-53.08749056 128.97717486 -53.72939396 129.61555883 -54.39074898 130.27328777 C-56.71983827 132.77238015 -57.9390703 134.43944679 -58.3125 137.875 C-57.96177136 141.38228638 -57.0869662 143.19062242 -55 146 C-51.89046621 147.5547669 -49.43733239 147.28644437 -46 147 C-40.1849894 143.78921758 -35.82076918 139.08229711 -31.18066406 134.3918457 C-30.31493271 133.52480011 -29.44920135 132.65775452 -28.55723572 131.76443481 C-26.68395999 129.88690548 -24.81260175 128.00767918 -22.94431305 126.1252079 C-19.99114089 123.14968494 -17.03081878 120.18134414 -14.06951904 117.21391296 C-9.38983405 112.52287327 -4.71485198 107.82717908 -0.04191852 103.12941474 C8.33716945 94.7058879 16.72195645 86.28804259 25.11191201 77.87534016 C28.05605691 74.92278023 30.99737009 71.96743593 33.93644762 69.00983202 C36.18849693 66.74467016 38.44365653 64.48260765 40.69824219 62.2199707 C41.51384109 61.39763443 42.32944 60.57529816 43.16975403 59.7280426 C43.91269211 58.98358887 44.65563019 58.23913513 45.42108154 57.47212219 C46.3911017 56.49682289 46.3911017 56.49682289 47.38071823 55.50182056 C50.32604068 52.77014908 52.97565628 52.59154201 56.95703125 52.6640625 C59 53 59 53 62 55 C64.05207872 58.07811809 64.85664201 60.18132916 64.61291504 63.90931892 C63.85865869 66.48212164 62.75175129 67.79083632 60.94335938 69.76339722 C60.30712646 70.45997311 59.67089355 71.156549 59.01538086 71.87423325 C55.7768118 75.29018434 52.48953057 78.64959766 49.15625 81.97314453 C48.03041504 83.10160797 48.03041504 83.10160797 46.88183594 84.25286865 C44.4237168 86.71535485 41.96199839 89.17420524 39.5 91.6328125 C37.77784879 93.35563816 36.05584597 95.07861218 34.33398438 96.80172729 C30.73469567 100.40248595 27.13361564 104.00144082 23.53125 107.59912109 C18.92473095 112.199939 14.32272194 116.80523781 9.7220459 121.41189766 C6.17045045 124.96711404 2.61646752 128.51993608 -0.93823242 132.07204819 C-2.63575544 133.76890641 -4.33254224 135.46650148 -6.02856445 137.16485977 C-8.40204176 139.54088926 -10.77872293 141.91366826 -13.15625 144.28564453 C-13.84944336 144.98086212 -14.54263672 145.67607971 -15.25683594 146.3923645 C-18.89180401 150.0117031 -22.59472215 153.45275243 -26.55529785 156.71456718 C-29.64626418 159.4647739 -30.84735422 161.95328608 -31.4375 166 C-30.87407924 169.86345665 -29.9033447 171.39443424 -27 174 C-22.82080794 175.34049557 -20.81953288 175.3796494 -16.82110596 173.52737427 C-11.94840236 170.58200455 -8.14662338 166.5332222 -4.17480469 162.49951172 C-3.32028717 161.64382599 -2.46576965 160.78814026 -1.58535767 159.90652466 C0.74208154 157.57315444 3.06276994 155.2333138 5.380723 152.89052725 C7.81326016 150.4354063 10.2547967 147.98926935 12.69549561 145.54226685 C17.31223235 140.91107879 21.92168853 136.27271977 26.52817607 131.63133919 C34.78549734 123.31194515 43.0551633 115.00482969 51.32752681 106.7003957 C54.22913376 103.78696375 57.12753034 100.87038533 60.02327776 97.95112967 C62.24449362 95.71284448 64.4687547 93.4775876 66.69238281 91.24169922 C67.49346466 90.43230896 68.29454651 89.6229187 69.11990356 88.78900146 C69.85435699 88.05158722 70.58881042 87.31417297 71.34552002 86.55441284 C71.98260517 85.91250944 72.61969032 85.27060604 73.27608109 84.60925102 C75.99702238 82.06929539 77.63390347 81.04067739 81.375 80.625 C85.63785745 81.06598525 87.15771476 81.82332827 90 85 C91.21891005 88.50436641 91.29026543 90.25726198 89.9375 93.71875 C87.45689026 97.91978262 84.38740793 101.13980949 81 104.625 C79.63877572 106.05025884 78.27810239 107.47604407 76.91796875 108.90234375 C76.24942871 109.59956543 75.58088867 110.29678711 74.89208984 111.01513672 C72.32728658 113.70569808 69.81751123 116.44113002 67.3125 119.1875 C66.44625 120.13496094 65.58 121.08242187 64.6875 122.05859375 C63.800625 123.02925781 62.91375 123.99992187 62 125 C56.0418038 131.51726072 50.08224798 137.989945 43.78515625 144.18359375 C41.98081164 146.01952426 40.29968611 147.92055194 38.625 149.875 C35.88378551 153.06682509 32.99314112 156.04302977 30 159 C27.13073759 161.83489999 24.35513289 164.67120659 21.75 167.75 C18.36970655 171.70977232 14.69778505 175.34068846 11 179 C5.49602702 184.44229912 5.49602702 184.44229912 0.3125 190.1875 C-7.19162879 198.9517206 -14.83568806 206.35788542 -25 212 C-25.93457031 212.53367187 -26.86914062 213.06734375 -27.83203125 213.6171875 C-46.5752994 223.70392619 -69.61469121 225.29635515 -90.16796875 219.8671875 C-91.10253906 219.58101562 -92.03710938 219.29484375 -93 219 C-94.00675781 218.71382812 -95.01351563 218.42765625 -96.05078125 218.1328125 C-98.38030484 217.45618739 -100.69312017 216.74947018 -103 216 C-103.69738281 216.76957031 -104.39476562 217.53914062 -105.11328125 218.33203125 C-114.5970937 228.68378536 -124.51343236 238.58273128 -134.49145508 248.4543457 C-139.64055361 253.55934724 -144.69799023 258.65206318 -149.40063477 264.17797852 C-153.04951232 268.33483597 -157.09251645 272.12905828 -161.0390625 276 C-164.97003836 279.88544332 -168.67858086 283.87527415 -172.28515625 288.0625 C-175.0488532 291.18503688 -178.02150164 294.08422424 -181 297 C-185.32090468 301.27099137 -189.50108241 305.57162998 -193.4296875 310.2109375 C-195.83310066 312.94915448 -198.45200848 315.46037476 -201.046875 318.015625 C-202.86987667 319.8677947 -204.56603666 321.7717518 -206.25 323.75 C-209.33561612 327.3451674 -212.63197623 330.67337787 -216 334 C-219.86937331 337.82204153 -223.55064826 341.70151063 -227.0703125 345.8515625 C-230.23031821 349.36978748 -233.62048404 352.66050302 -237.00195312 355.96484375 C-239.86109006 358.70625742 -239.86109006 358.70625742 -242 362 C-242.66 362 -243.32 362 -244 362 C-244.2678833 362.59458008 -244.5357666 363.18916016 -244.81176758 363.80175781 C-246.01210673 366.02239757 -247.20702998 367.4243607 -249.01171875 369.171875 C-249.89537109 370.038125 -249.89537109 370.038125 -250.796875 370.921875 C-251.42078125 371.52515625 -252.0446875 372.1284375 -252.6875 372.75 C-258.2741098 378.20463662 -258.2741098 378.20463662 -263.5 384 C-267.3492253 388.55622586 -271.64215874 392.66668127 -275.87792969 396.85839844 C-279.51744028 400.47454138 -282.98163558 404.16011478 -286.296875 408.078125 C-289.23378548 411.39225334 -292.43694414 414.44374844 -295.5859375 417.5546875 C-298.28751294 420.29123479 -300.79078735 423.14979366 -303.2890625 426.0703125 C-305.11799863 428.13308521 -307.03580458 430.0659072 -309 432 C-311.55869259 434.51955389 -313.98170611 437.08118782 -316.3125 439.8125 C-319.22250451 443.20195605 -322.32159942 446.36451453 -325.5 449.5 C-328.61579869 452.57389855 -331.65877278 455.66702191 -334.5 459 C-338.14494933 463.27580595 -342.14002596 467.17202535 -346.15625 471.09375 C-348.29268048 473.22603646 -350.28286856 475.44860018 -352.25390625 477.734375 C-356.46387864 482.59035842 -360.92113003 487.17982101 -365.4375 491.75 C-366.24509766 492.58660156 -367.05269531 493.42320312 -367.88476562 494.28515625 C-374.99646542 501.47135411 -381.79491512 505.98348075 -392.125 506.375 C-399.30415874 506.27927788 -404.74498125 503.93012988 -410.07421875 499.1328125 C-417.29554823 491.35133797 -418.3328394 485.25380077 -418.49609375 474.81640625 C-417.32433012 465.80213014 -412.11087355 460.5494698 -405.75 454.4375 C-405.02425781 453.72142578 -404.29851562 453.00535156 -403.55078125 452.26757812 C-399.43835912 448.23945698 -395.20313288 444.40015751 -390.84863281 440.63696289 C-388.10807232 438.21019875 -385.5540613 435.62003977 -383 433 C-379.08746404 429.03336235 -375.10438804 425.25414849 -370.859375 421.640625 C-368.81699172 419.83852211 -366.91098289 417.94061053 -365 416 C-362.56099918 413.52340379 -360.09257578 411.17969143 -357.4375 408.9375 C-353.24044774 405.33883935 -349.38736898 401.42541051 -345.5 397.5 C-341.15530704 393.11299719 -336.80953669 388.84821215 -332.0859375 384.8671875 C-328.54356256 381.69629757 -325.23924144 378.28002588 -321.91748047 374.88037109 C-319.08285379 372.00001044 -316.18912628 369.26129351 -313.125 366.625 C-308.69441152 362.79646278 -304.60108295 358.67578391 -300.5 354.5 C-295.8066805 349.72119198 -291.06008022 345.12844906 -285.98242188 340.75976562 C-282.49728173 337.66605994 -279.26192574 334.32563522 -276 331 C-272.19957343 327.12534635 -268.41408445 323.30340548 -264.28125 319.78125 C-258.37070776 314.69033374 -252.97819379 309.04608524 -247.5 303.5 C-235.39509053 291.24507395 -235.39509053 291.24507395 -231.15625 287.65625 C-224.37571729 281.87762743 -218.26258708 275.32621278 -212 269 C-209.35717585 266.33032568 -206.71088176 263.66415992 -204.0625 261 C-203.47267334 260.401875 -202.88284668 259.80375 -202.27514648 259.1875 C-199.36727323 256.26289842 -196.41324148 253.46044764 -193.2800293 250.77783203 C-187.73569433 245.9834735 -182.62341994 240.74730781 -177.45703125 235.5546875 C-176.3596517 234.45543754 -175.26204721 233.3564121 -174.16423035 232.25759888 C-171.29526623 229.38484665 -168.42931618 226.50910632 -165.56402588 223.63269043 C-162.6519261 220.71034142 -159.73698159 217.790833 -156.82226562 214.87109375 C-151.69446319 209.73376504 -146.56913445 204.59398 -141.44563293 199.45236206 C-140.63857407 198.64308258 -139.8315152 197.8338031 -139 197 C-138.12055222 196.11039581 -137.24110443 195.22079163 -136.33500671 194.30422974 C-134 192 -134 192 -131.609375 190.0859375 C-129.6690622 188.06133043 -129.6690622 188.06133043 -130.265625 185.1640625 C-130.75289062 183.41222656 -130.75289062 183.41222656 -131.25 181.625 C-137.35679052 155.5237513 -132.89499854 130.79746284 -119.3125 108.19140625 C-113.27437352 99.1197018 -105.56687334 90.95723755 -97.2265625 83.97265625 C-94.18471175 81.27768322 -91.35469758 78.39079705 -88.5 75.5 C-84.51253196 71.46674447 -80.48502132 67.60595027 -76.15625 63.9375 C-72.55068358 60.69771568 -69.1911039 57.21035106 -65.78393555 53.7644043 C-62.29964891 50.25579101 -58.72878194 46.93831394 -54.95703125 43.73828125 C-51.63367918 40.78640166 -48.5681265 37.57507606 -45.4453125 34.4140625 C-42.70876521 31.71248706 -39.85020634 29.20921265 -36.9296875 26.7109375 C-34.16029838 24.25548723 -31.59964876 21.60903661 -29.00390625 18.97265625 C-26.42193501 16.43094967 -23.69549876 14.0870009 -20.9453125 11.73046875 C-18.97624143 9.97886537 -17.1456018 8.14261809 -15.3125 6.25 C-10.5067801 1.42258385 -7.07859111 -0.88482389 0 0 Z " fill="#861719" transform="translate(722,112)"/>
<path d="M0 0 C0.71897461 0.29890137 1.43794922 0.59780273 2.17871094 0.90576172 C19.51737184 8.26891836 35.05728226 18.37877612 49 31 C49.8559375 31.73605469 50.711875 32.47210938 51.59375 33.23046875 C73.41074915 52.18226073 98.04904523 82.7287907 100.20336914 112.84277344 C100.30482071 116.1065136 100.32755924 119.35973352 100.3125 122.625 C100.31056641 124.36487183 100.31056641 124.36487183 100.30859375 126.13989258 C100.22689699 133.42060586 99.509588 139.79406495 97.68359375 146.8359375 C95.87309037 155.21598174 95.61645946 164.38265507 99.7421875 172.0859375 C103.38528933 177.62978812 107.82971421 181.84105245 112.86328125 186.1171875 C115.90380876 188.79640918 118.71050099 191.68620871 121.53125 194.59375 C123.56500307 196.57601565 125.63144304 198.4295608 127.78125 200.28125 C132.77855716 204.61721735 137.36994837 209.31858018 142 214.0390625 C145.21311287 217.28982904 148.44957537 220.43933234 151.91796875 223.41796875 C156.62820988 227.4742336 160.95561489 231.88342127 165.3125 236.3125 C166.88957754 237.91507597 168.46890596 239.51544087 170.05078125 241.11328125 C170.73825439 241.81235596 171.42572754 242.51143066 172.1340332 243.23168945 C174.07967993 245.17568526 174.07967993 245.17568526 177 247 C175.39626852 251.00517396 172.57886014 253.6771098 169.5546875 256.640625 C169.02481232 257.16767029 168.49493713 257.69471558 167.94900513 258.23773193 C166.26232175 259.91325675 164.56880436 261.58167722 162.875 263.25 C161.72740612 264.38755851 160.58026539 265.52557436 159.43359375 266.6640625 C156.62761863 269.44803465 153.81549536 272.2256576 151 275 C150.23413574 274.23341064 149.46827148 273.46682129 148.67919922 272.67700195 C146.83566581 270.83498047 144.98916956 268.99697553 143.1328125 267.16796875 C138.11791893 262.20589828 133.21672554 257.23518243 128.640625 251.859375 C126.21033237 249.10504336 123.57722737 246.56838097 120.9609375 243.9921875 C119.09521194 242.09672926 117.35340745 240.14553265 115.625 238.125 C112.09643401 234.01639577 108.26894022 230.2535824 104.41796875 226.44921875 C101.69350082 223.6895396 99.16452624 220.80819343 96.64453125 217.86328125 C94.45778238 215.38565842 92.10928639 213.09704626 89.75 210.78515625 C87.90664574 208.90477032 86.20528079 206.94348879 84.5 204.9375 C79.89093266 199.60341083 74.61923814 193.5081162 67.265625 192.69921875 C60.68226811 192.67363576 56.02697372 193.4021665 50 196 C24.89010597 201.29382381 -1.56069565 191.53594884 -22.62841797 178.33837891 C-30.00293745 173.52406996 -36.61020641 168.0453397 -43 162 C-43.65242676 161.38463379 -44.30485352 160.76926758 -44.97705078 160.13525391 C-59.026274 146.75932679 -70.32460451 132.14614104 -81 116 C-81.58652344 115.11828125 -82.17304688 114.2365625 -82.77734375 113.328125 C-97.76811747 89.629183 -107.59206919 57.13387941 -101.875 29.1875 C-98.02622221 14.89713061 -90.04874975 3.65807796 -77.6875 -4.53125 C-53.26707878 -17.87729415 -24.03774247 -10.0011421 0 0 Z " fill="#871719" transform="translate(316,125)"/>
<path d="M0 0 C8.41087207 7.36792394 13.5726772 15.68761144 15.953125 26.7109375 C16.03785062 28.07141985 16.07518258 29.43540615 16.07337952 30.79852295 C16.07544151 32.00578789 16.07544151 32.00578789 16.07754517 33.23744202 C16.07215225 34.5483506 16.07215225 34.5483506 16.06665039 35.88574219 C16.06679642 36.8129155 16.06694244 37.74008881 16.0670929 38.69535828 C16.06639662 41.75786687 16.05861749 44.82031454 16.05078125 47.8828125 C16.04891606 50.0070187 16.04749263 52.13122534 16.04649353 54.25543213 C16.04267631 59.84496245 16.03285278 65.43446677 16.02178955 71.02398682 C16.01155837 76.72822722 16.00699225 82.43247182 16.00195312 88.13671875 C15.99122982 99.32813826 15.97363942 110.51953165 15.953125 121.7109375 C5.723125 121.7109375 -4.506875 121.7109375 -15.046875 121.7109375 C-16.04947007 118.70315229 -16.35002142 116.17273103 -16.609375 113.0234375 C-16.69316406 112.02957031 -16.77695312 111.03570313 -16.86328125 110.01171875 C-16.92386719 109.25246094 -16.98445313 108.49320313 -17.046875 107.7109375 C-17.43617188 108.21882812 -17.82546875 108.72671875 -18.2265625 109.25 C-26.30752085 119.19293032 -35.43893662 123.08933771 -48.046875 124.7109375 C-61.31457093 125.76184411 -74.32845857 124.10244985 -85.046875 115.7109375 C-92.1787902 109.25884091 -96.53063595 102.5438454 -97.38671875 92.87109375 C-97.82880361 81.13916261 -96.14993971 71.55064445 -88.046875 62.7109375 C-73.13266352 47.01176753 -48.48693772 45.23314278 -28.046875 43.7109375 C-24.70981847 43.62568024 -21.38380457 43.62767616 -18.046875 43.7109375 C-18.27685374 41.33247317 -18.53008991 38.96032484 -18.796875 36.5859375 C-18.8896875 35.58820312 -18.8896875 35.58820312 -18.984375 34.5703125 C-19.66001372 28.8273834 -21.70441844 24.89723029 -25.921875 20.9609375 C-32.2722787 17.22540591 -38.83700664 16.8493809 -46.046875 17.7109375 C-52.57029393 19.65082003 -56.78570076 22.59993804 -60.109375 28.55078125 C-61.26743484 31.21914413 -62.16418963 33.94072403 -63.046875 36.7109375 C-88.79009003 33.33932998 -88.79009003 33.33932998 -94.046875 30.7109375 C-93.67265451 20.98120472 -88.99322083 11.49941183 -82.046875 4.7109375 C-60.98140437 -12.57754486 -22.65492453 -17.03442799 0 0 Z " fill="#851618" transform="translate(350.046875,732.2890625)"/>
<path d="M0 0 C3.78407674 1.77843564 6.42269309 4.02104601 9.5 6.875 C10.02045898 7.35678711 10.54091797 7.83857422 11.07714844 8.33496094 C15.41597002 12.38192185 19.60397777 16.57088658 23.77270508 20.79174805 C27.08105395 24.12736203 30.49851931 27.25029283 34.07421875 30.29296875 C37.11798975 32.990997 39.9258425 35.91797733 42.78125 38.8125 C44.79430632 40.79720342 46.85446403 42.66096916 49 44.5 C51.97140209 47.04691608 54.7514401 49.71378859 57.5 52.5 C60.22829407 55.26560408 62.98516834 57.91287031 65.9375 60.4375 C69.1103592 63.15619248 72.06338382 66.02751675 75 69 C77.89591958 71.93118191 80.80242571 74.76403174 83.9375 77.4375 C87.28925096 80.30172355 90.40556417 83.36334093 93.5 86.5 C96.57390527 89.61579123 99.66702145 92.65877238 103 95.5 C106.8496396 98.78165999 110.38002309 102.35105176 113.92919922 105.94873047 C117.17364737 109.22020631 120.53617507 112.26963506 124.0390625 115.2578125 C127.01043638 117.89771838 129.76456888 120.74194023 132.53125 123.59375 C134.5615584 125.57265819 136.62333208 127.43177373 138.765625 129.28515625 C143.07294368 133.02693845 147.18729873 136.93272698 151.25 140.9375 C151.94351563 141.60201172 152.63703125 142.26652344 153.3515625 142.95117188 C159.27428855 148.80014751 163.66261345 155.10789503 164.25 163.625 C164.13289747 171.58797225 160.97692087 178.86075583 155.46875 184.59375 C148.84968427 190.73142914 142.14540056 192.77674388 133.1328125 192.44921875 C118.15489746 190.30151273 107.74132833 176.62698156 98.50390625 165.72265625 C96.4028606 163.31600396 94.12255178 161.11080899 91.84326172 158.87451172 C90.05894755 157.05994692 88.38996612 155.19046987 86.73046875 153.26171875 C83.18606493 149.18542025 79.52245517 145.23789404 75.8125 141.3125 C71.20440827 136.41814201 66.61123271 131.51208489 62.0625 126.5625 C57.39251936 121.48435445 52.6719784 116.45552652 47.9375 111.4375 C42.49764888 105.67093876 37.10588163 99.86713189 31.76171875 94.01171875 C26.22667894 87.95972521 20.60220582 81.98971317 15 76 C7.83164535 68.33257035 0.67305451 60.65703457 -6.43945312 52.93774414 C-10.48643554 48.54877275 -14.55244394 44.1777449 -18.625 39.8125 C-19.22957031 39.16410156 -19.83414063 38.51570313 -20.45703125 37.84765625 C-21.02035156 37.244375 -21.58367188 36.64109375 -22.1640625 36.01953125 C-22.66373535 35.48432861 -23.1634082 34.94912598 -23.67822266 34.39770508 C-24.7665139 33.2468984 -25.88001477 32.11998523 -27 31 C-26.10313248 20.30485483 -7.23091833 7.14997986 0 0 Z " fill="#861719" transform="translate(548,426)"/>
<path d="M0 0 C12.54 0 25.08 0 38 0 C44.93612087 18.05431463 51.67473126 36.17492024 58.30627441 54.3432312 C59.22806684 56.86852757 60.15208914 59.39299047 61.07800293 61.91677856 C62.39415307 65.50785299 63.70382864 69.1012228 65.01171875 72.6953125 C65.41434433 73.79102066 65.81696991 74.88672882 66.23179626 76.01564026 C66.5970491 77.02384323 66.96230194 78.0320462 67.33862305 79.07080078 C67.66074265 79.9537381 67.98286224 80.83667542 68.31474304 81.74636841 C69 84 69 84 69 87 C69.66 87 70.32 87 71 87 C71.21914063 85.85015625 71.43828125 84.7003125 71.6640625 83.515625 C73.1449985 76.8733815 75.40831578 70.48002917 77.59503174 64.04544067 C78.94275494 60.07910152 80.27567412 56.10779062 81.609375 52.13671875 C81.88621124 51.31344589 82.16304749 50.49017303 82.44827271 49.64195251 C86.1144732 38.71543813 89.63830757 27.74250787 93.16552734 16.77050781 C93.40825378 16.01767014 93.65098022 15.26483246 93.90106201 14.48918152 C94.35235651 13.08938018 94.80221638 11.6891151 95.25030518 10.2882843 C96.37994398 6.78681555 97.63046469 3.42383827 99 0 C110.55 0 122.1 0 134 0 C131.97608902 7.42100692 129.85998491 14.46326129 127.1484375 21.61328125 C126.77716736 22.60466599 126.40589722 23.59605072 126.02337646 24.61747742 C124.81158536 27.85079691 123.59321803 31.08159719 122.375 34.3125 C121.08695647 37.74555025 119.80071038 41.17927073 118.51449585 44.61300659 C117.63715096 46.95479122 116.75923759 49.29636294 115.88076782 51.63772583 C111.94733166 62.12412274 108.05780539 72.62642042 104.18237305 83.1343689 C103.12883979 85.98959363 102.07349863 88.84414366 101.01757812 91.69848633 C98.06279565 99.68786841 95.11246301 107.67861234 92.19815063 115.68286133 C91.03333022 118.87950119 89.86250886 122.07392512 88.69085693 125.26806641 C88.16068323 126.71845857 87.63337915 128.16990406 87.10943604 129.62255859 C82.05923298 143.6222612 76.86359611 156.4753029 66 167 C65.32839844 167.66902344 64.65679688 168.33804688 63.96484375 169.02734375 C59.43196928 173.28986785 54.87624301 175.97335813 49 178 C48.34902344 178.22558594 47.69804688 178.45117188 47.02734375 178.68359375 C36.29121826 181.68308931 23.27084973 181.23956451 13 177 C12.09576489 173.36642716 12.00818142 170.65908935 12.70703125 166.98828125 C12.88169922 166.06595703 13.05636719 165.14363281 13.23632812 164.19335938 C13.42646484 163.24267578 13.61660156 162.29199219 13.8125 161.3125 C13.99103516 160.35021484 14.16957031 159.38792969 14.35351562 158.39648438 C15.74092852 151.25907148 15.74092852 151.25907148 18 149 C18.66 149.33 19.32 149.66 20 150 C31.28434962 151.03018798 31.28434962 151.03018798 41.35546875 146.6953125 C44.46715654 143.48753934 46.81798325 139.88454575 49 136 C49.35892838 135.3822319 49.71785675 134.76446381 50.08766174 134.12797546 C52.15225373 129.31243576 50.38722237 123.63797902 48.61157227 118.9128418 C48.0250838 117.50329019 47.42606173 116.09890609 46.81640625 114.69921875 C46.32621758 113.53338257 46.32621758 113.53338257 45.8261261 112.34399414 C44.74872399 109.78725768 43.65544851 107.23762438 42.5625 104.6875 C41.40043165 101.93883202 40.24264093 99.18838417 39.08477783 96.4379425 C38.28014947 94.52775461 37.47409829 92.61816548 36.66668701 90.70915222 C32.69828859 81.32097506 28.84182247 71.88843052 24.99893188 62.44833374 C20.2207895 50.71127309 15.42603717 38.98194291 10.53125 27.29296875 C10.17684845 26.44613022 9.8224469 25.59929169 9.45730591 24.72679138 C7.78274972 20.72792201 6.10354977 16.73108893 4.41748047 12.73706055 C3.82771734 11.33255402 3.23803159 9.928015 2.6484375 8.5234375 C2.37753296 7.88613205 2.10662842 7.2488266 1.82751465 6.59220886 C0 2.22648363 0 2.22648363 0 0 Z " fill="#851718" transform="translate(762,726)"/>
<path d="M0 0 C42.9 0 85.8 0 130 0 C130 10.56 130 21.12 130 32 C114.82 32 99.64 32 84 32 C84 78.86 84 125.72 84 174 C72.12 174 60.24 174 48 174 C48 127.14 48 80.28 48 32 C32.16 32 16.32 32 0 32 C0 21.44 0 10.88 0 0 Z " fill="#851618" transform="translate(123,680)"/>
<path d="M0 0 C1.06025391 -0.020625 2.12050781 -0.04125 3.21289062 -0.0625 C17.83369424 -0.13377753 32.20371655 4.07770302 43.0625 14.2578125 C48.48244486 20.42783902 52.99815272 27.92338875 52.8125 36.25 C48.39692544 37.08919128 43.97987466 37.9203408 39.5625 38.75 C38.30824219 38.98847656 37.05398438 39.22695313 35.76171875 39.47265625 C34.55644531 39.69824219 33.35117187 39.92382812 32.109375 40.15625 C30.99916992 40.36572266 29.88896484 40.57519531 28.74511719 40.79101562 C25.8125 41.25 25.8125 41.25 21.8125 41.25 C21.59335937 40.73050781 21.37421875 40.21101562 21.1484375 39.67578125 C18.37615163 33.57900622 15.49474415 29.74607631 9.08203125 27.140625 C2.18839793 25.2627894 -7.01229001 24.52346342 -13.5 28 C-17.14674311 31.05308725 -17.96826952 32.53269454 -18.5625 37.1875 C-18.08350814 41.09926685 -16.91312493 42.43054208 -14.1875 45.25 C-11.18491622 46.7580194 -11.18491622 46.7580194 -7.6875 47.75 C-6.72203247 48.05454102 -6.72203247 48.05454102 -5.73706055 48.36523438 C-0.21614771 50.05896575 5.38788229 51.39779062 11 52.75 C25.85652094 56.34348482 39.57100083 61.43192063 48.8125 74.25 C54.06584754 83.03219193 55.41966789 92.16009363 53.12890625 102.265625 C49.29224512 113.6641701 41.61262661 122.36572122 31 128 C12.97581109 136.42977451 -7.79376408 136.24108065 -26.4765625 130.18359375 C-39.35818422 125.24292112 -48.08634964 116.99889894 -54.20703125 104.77734375 C-55.30462001 101.94810102 -55.72561667 99.24208898 -56.1875 96.25 C-52.37971303 95.24999049 -48.57111027 94.25315764 -44.76171875 93.25927734 C-42.82768311 92.75396693 -40.89430713 92.24613392 -38.9609375 91.73828125 C-37.74921875 91.42246094 -36.5375 91.10664062 -35.2890625 90.78125 C-34.16838379 90.48798828 -33.04770508 90.19472656 -31.89306641 89.89257812 C-29.1875 89.25 -29.1875 89.25 -27.1875 89.25 C-26.919375 89.90226563 -26.65125 90.55453125 -26.375 91.2265625 C-23.46848415 97.70885771 -20.50904501 101.85795146 -14.1875 105.25 C-5.30602643 108.6188348 6.15762663 108.81422351 15.03515625 105.29296875 C18.09834379 103.49544991 19.37501006 101.4374777 20.8125 98.25 C21.44674501 94.44452992 20.9889184 92.63351826 19.375 89.125 C13.15656029 82.14821399 3.33602654 81.07670534 -5.4375 79.3125 C-21.46997896 75.896553 -38.58530206 71.92335872 -48.1875 57.25 C-53.57728596 48.34001008 -53.64395296 37.24097423 -51.5625 27.25 C-47.93877877 16.89651077 -39.83610718 9.91776277 -30.1875 5.25 C-20.11615361 0.92181808 -10.87408271 0.05193592 0 0 Z " fill="#851718" transform="translate(442.1875,722.75)"/>
<path d="M0 0 C1 1 1 1 1.03759766 3.05371094 C0.99683105 3.93833008 0.95606445 4.82294922 0.9140625 5.734375 C0.87023437 6.70117188 0.82640625 7.66796875 0.78125 8.6640625 C0.70390625 10.19160156 0.70390625 10.19160156 0.625 11.75 C0.58117187 12.75289062 0.53734375 13.75578125 0.4921875 14.7890625 C0.27669171 19.30250217 -0.02615375 23.5774051 -1 28 C-2.14275391 27.67515625 -2.14275391 27.67515625 -3.30859375 27.34375 C-14.35723205 24.35953041 -14.35723205 24.35953041 -25.375 26.25 C-29.08256388 28.72170925 -30.59952944 30.79858832 -32 35 C-32.14403348 36.33363703 -32.24590423 37.67218046 -32.31640625 39.01171875 C-32.35451416 39.69451904 -32.39262207 40.37731934 -32.43188477 41.08081055 C-32.47498779 41.94101807 -32.51809082 42.80122559 -32.5625 43.6875 C-32.706875 46.430625 -32.85125 49.17375 -33 52 C-22.77 52 -12.54 52 -2 52 C-2 60.91 -2 69.82 -2 79 C-12.23 79 -22.46 79 -33 79 C-33 112.33 -33 145.66 -33 180 C-44.22 180 -55.44 180 -67 180 C-67 146.67 -67 113.34 -67 79 C-73.6 79 -80.2 79 -87 79 C-87 70.09 -87 61.18 -87 52 C-80.4 52 -73.8 52 -67 52 C-67.04640625 50.39511719 -67.0928125 48.79023437 -67.140625 47.13671875 C-67.17817471 44.98699795 -67.2145714 42.8372568 -67.25 40.6875 C-67.30027344 39.1087207 -67.30027344 39.1087207 -67.3515625 37.49804688 C-67.48624006 26.55549511 -64.62575072 17.05137402 -57 9 C-42.10237557 -5.09595854 -18.70029344 -6.10686402 0 0 Z " fill="#851618" transform="translate(756,674)"/>
<path d="M0 0 C11.55 0 23.1 0 35 0 C35 10.56 35 21.12 35 32 C44.57 32 54.14 32 64 32 C64 40.91 64 49.82 64 59 C54.43 59 44.86 59 35 59 C35.06764655 67.10359017 35.13807224 75.20630111 35.2355423 83.30944824 C35.28013056 87.08323121 35.3195805 90.85690501 35.34643555 94.63085938 C35.37252177 98.2685524 35.41296081 101.90583311 35.46318626 105.54327011 C35.47981923 106.92821991 35.49135572 108.31324098 35.49761391 109.69827652 C35.50729302 111.64418174 35.53708156 113.589955 35.56762695 115.53564453 C35.58428154 117.19444138 35.58428154 117.19444138 35.60127258 118.88674927 C36.19296907 123.50669627 37.65151465 126.9046433 41.2890625 129.859375 C44.51887936 131.21831812 46.87939595 131.33303098 50.375 131.25 C51.99535156 131.22679687 51.99535156 131.22679687 53.6484375 131.203125 C57.11582379 130.99298038 60.56116446 130.49126222 64 130 C64 138.91 64 147.82 64 157 C49.81661029 163.07859559 35.75282178 163.57786624 21 159 C11.56271369 154.53190427 5.31955168 147.06435865 1.7265625 137.39453125 C0.24025442 132.49610733 -0.12262304 128.03676976 -0.11352539 122.91479492 C-0.11367142 122.22156128 -0.11381744 121.52832764 -0.1139679 120.81408691 C-0.11327451 118.53618171 -0.10550915 116.25835957 -0.09765625 113.98046875 C-0.09579003 112.39577784 -0.09436709 110.81108635 -0.09336853 109.22639465 C-0.08955943 105.0655049 -0.07974292 100.90465032 -0.06866455 96.74377441 C-0.05841582 92.49390132 -0.0538635 88.24402252 -0.04882812 83.99414062 C-0.03811916 75.66274251 -0.02053542 67.33137969 0 59 C-6.6 59 -13.2 59 -20 59 C-20 50.09 -20 41.18 -20 32 C-13.4 32 -6.8 32 0 32 C0 21.44 0 10.88 0 0 Z " fill="#871719" transform="translate(528,694)"/>
<path d="M0 0 C1.34022217 -0.01065742 1.34022217 -0.01065742 2.70751953 -0.02153015 C32.80668584 -0.20621061 60.23696064 2.15639059 89.41015625 10.203125 C90.35165527 10.4604541 91.2931543 10.7177832 92.26318359 10.98291016 C104.07648855 14.30890105 115.05841859 19.16332118 126.09765625 24.453125 C126.74814941 24.7633963 127.39864258 25.0736676 128.06884766 25.39334106 C129.92124637 26.28259473 131.76644922 27.1850513 133.609375 28.09375 C134.68018311 28.62000977 135.75099121 29.14626953 136.85424805 29.68847656 C139.41015625 31.203125 139.41015625 31.203125 141.41015625 34.203125 C136.46015625 39.153125 131.51015625 44.103125 126.41015625 49.203125 C122.71891586 47.97271154 119.39315433 46.82763493 115.8984375 45.25 C96.85589899 36.78418498 77.90033973 31.03195779 57.41015625 27.203125 C56.10594727 26.95320801 56.10594727 26.95320801 54.77539062 26.69824219 C26.28230286 21.4654812 -4.26587327 22.71759034 -32.58984375 28.203125 C-33.39921387 28.35265625 -34.20858398 28.5021875 -35.04248047 28.65625 C-52.07231357 31.87659927 -69.00892902 37.85188642 -84.36328125 45.85253906 C-88.96032956 48.19069294 -88.96032956 48.19069294 -91.765625 48.24609375 C-94.54668004 46.65606871 -96.12739194 44.46667629 -98.08984375 41.953125 C-98.84265625 40.99921875 -99.59546875 40.0453125 -100.37109375 39.0625 C-101.10328125 38.11890625 -101.83546875 37.1753125 -102.58984375 36.203125 C-103.92095219 34.53468085 -105.25354957 32.86741867 -106.58984375 31.203125 C-103.88024192 27.97740853 -100.36251105 26.34110505 -96.65234375 24.515625 C-95.94779053 24.16894775 -95.2432373 23.82227051 -94.51733398 23.46508789 C-65.29743497 9.34717919 -32.6126034 0.1724023 0 0 Z " fill="#85181A" transform="translate(496.58984375,123.796875)"/>
<path d="M0 0 C18.4002379 27.60035686 14.06541171 84.93642717 8 116 C7.7834375 117.28648437 7.566875 118.57296875 7.34375 119.8984375 C0.25267219 159.49028862 -17.17724772 196.53880595 -42 228 C-42.64678711 228.82250244 -42.64678711 228.82250244 -43.30664062 229.66162109 C-47.59527003 235.08656845 -51.98164761 240.23899902 -57 245 C-60.36638887 243.54974765 -62.48039225 241.70513547 -65 239.0625 C-67.5251518 236.42391364 -70.02233271 234.12025863 -73 232 C-71.54562723 228.67358844 -69.70099367 226.47709549 -67.1875 223.875 C-52.43554944 207.74525051 -41.28864682 188.68080024 -32 169 C-31.69320312 168.35450195 -31.38640625 167.70900391 -31.0703125 167.04394531 C-10.24522927 122.79064344 -5.12326242 70.98491837 -15.61962891 23.31103516 C-16.04289918 20.73935581 -16.29071247 18.59911402 -16 16 C-14.53125 13.96362305 -14.53125 13.96362305 -12.5 12.01171875 C-11.778125 11.30595703 -11.05625 10.60019531 -10.3125 9.87304688 C-9.1678125 8.79120117 -9.1678125 8.79120117 -8 7.6875 C-6.8553125 6.57665039 -6.8553125 6.57665039 -5.6875 5.44335938 C-3.80239968 3.61716844 -1.90664431 1.80364241 0 0 Z " fill="#851819" transform="translate(754,295)"/>
<path d="M0 0 C4.30108464 2.47538523 8.29441785 5.28670125 12.3125 8.1875 C12.95767578 8.65091797 13.60285156 9.11433594 14.26757812 9.59179688 C15.84629622 10.72613506 17.42332148 11.86282862 19 13 C18.87882812 14.06734375 18.75765625 15.1346875 18.6328125 16.234375 C18.17510668 20.28419663 17.73276125 24.33561834 17.29101562 28.38720703 C17.01413222 30.87311829 16.71958984 33.35635515 16.421875 35.83984375 C9.62214008 94.71923113 24.99236706 154.0490429 61.9375 200.75 C62.77770116 201.78828049 63.62006288 202.82481729 64.46484375 203.859375 C67.40321986 207.49952045 70.19313401 211.25751201 73 215 C68.05 219.95 63.1 224.9 58 230 C53.96875942 226.77500754 51.01657869 223.8275777 47.9375 219.8125 C47.46489746 219.20011475 46.99229492 218.58772949 46.50537109 217.95678711 C44.99200995 215.97967005 43.49389424 213.99185899 42 212 C41.5157959 211.35869141 41.0315918 210.71738281 40.53271484 210.05664062 C11.72022764 171.58854589 -6.14944332 124.19022757 -8 76 C-8.03399902 75.18321777 -8.06799805 74.36643555 -8.10302734 73.52490234 C-8.59683799 59.66060432 -7.71731098 46.07778428 -6.1875 32.3125 C-6.10472809 31.55426941 -6.02195618 30.79603882 -5.93667603 30.01483154 C-2.93062331 2.93062331 -2.93062331 2.93062331 0 0 Z " fill="#851819" transform="translate(267,306)"/>
<path d="M0 0 C3.84463537 1.20328282 7.48851145 2.62441971 11.1472168 4.30908203 C53.12853685 23.56322984 100.59536398 29.01507477 146 21 C146.84933105 20.85014648 147.69866211 20.70029297 148.57373047 20.54589844 C154.09340644 19.53686782 159.55314238 18.34623693 165 17 C165.70108887 16.82774902 166.40217773 16.65549805 167.12451172 16.47802734 C178.98465026 13.47766994 189.99151992 8.79224485 201.11499023 3.74682617 C203 3 203 3 205 3 C206.515625 4.50390625 206.515625 4.50390625 208.25 6.5625 C208.86488281 7.28824219 209.47976563 8.01398437 210.11328125 8.76171875 C210.73589844 9.50035156 211.35851562 10.23898437 212 11 C212.59167969 11.66644531 213.18335938 12.33289063 213.79296875 13.01953125 C214.33566406 13.63183594 214.87835937 14.24414062 215.4375 14.875 C216.17806641 15.70644531 216.17806641 15.70644531 216.93359375 16.5546875 C218 18 218 18 218 20 C200.33556629 28.80933547 182.12000746 35.14872458 163 40 C161.33904297 40.42925781 161.33904297 40.42925781 159.64453125 40.8671875 C156.11341608 41.70158012 152.57590257 42.39418244 149 43 C148.19965332 43.13680176 147.39930664 43.27360352 146.57470703 43.41455078 C119.50102063 47.81520313 89.97826499 48.29106765 63 43 C61.47173584 42.70198486 61.47173584 42.70198486 59.91259766 42.39794922 C34.26565356 37.23296651 8.62529198 29.40758043 -14 16 C-9.84542161 10.08287321 -5.22741666 4.98860067 0 0 Z " fill="#85181A" transform="translate(407,575)"/>
<path d="M0 0 C11.55 0 23.1 0 35 0 C35 42.24 35 84.48 35 128 C23.45 128 11.9 128 0 128 C0 85.76 0 43.52 0 0 Z " fill="#851617" transform="translate(614,726)"/>
<path d="M0 0 C-1.88999927 3.83883121 -3.9922783 7.54222941 -6.125 11.25 C-6.49753906 11.8996875 -6.87007812 12.549375 -7.25390625 13.21875 C-8.16829121 14.81306224 -9.08401256 16.4066079 -10 18 C-11.20011719 17.55269531 -12.40023437 17.10539062 -13.63671875 16.64453125 C-22.71720086 13.32597257 -31.77547008 10.3594985 -41.1875 8.125 C-42.03465576 7.92237549 -42.88181152 7.71975098 -43.75463867 7.51098633 C-65.54706419 2.53188664 -91.54444099 2.72433794 -113 9 C-113.85980469 9.24669434 -114.71960938 9.49338867 -115.60546875 9.74755859 C-126.58187746 12.97276959 -136.85122376 17.01456422 -146.9453125 22.3984375 C-150 24 -150 24 -153 25 C-153.64730804 22.43786446 -154.29289288 19.87531515 -154.9375 17.3125 C-155.11990234 16.59126953 -155.30230469 15.87003906 -155.49023438 15.12695312 C-155.75610352 14.06831055 -155.75610352 14.06831055 -156.02734375 12.98828125 C-156.18968506 12.34415283 -156.35202637 11.70002441 -156.51928711 11.03637695 C-157.0705395 8.70118335 -157.54048396 6.35479619 -158 4 C-106.4238549 -22.09392118 -53.07396829 -22.90377164 0 0 Z " fill="#85191A" transform="translate(587,211)"/>
<path d="M0 0 C6.6 0.66 13.2 1.32 20 2 C19.67 4.475 19.34 6.95 19 9.5 C13.87568092 53.28405011 25.70191661 95.65850293 53.00341797 130.29443359 C53.99581155 131.53482426 54.99681347 132.76832196 56 134 C51.88380164 138.91935902 47.59589638 143.52647956 43 148 C27.35453172 141.67149598 16.58760676 113.42688096 10.3125 99 C1.6859294 77.3902964 -3.20520272 54.09551121 -3.1875 30.8125 C-3.18737915 29.3133606 -3.18737915 29.3133606 -3.18725586 27.78393555 C-3.11496381 18.3273746 -2.29924753 9.19699013 0 0 Z " fill="#851819" transform="translate(334,338)"/>
<path d="M0 0 C2.47364355 3.71046532 2.28889891 6.56620775 2.265625 10.859375 C2.26849518 12.03152557 2.26849518 12.03152557 2.27142334 13.22735596 C2.27278542 14.8883903 2.26908738 16.54943528 2.26074219 18.21044922 C2.25021509 20.69915191 2.26054537 23.18710368 2.2734375 25.67578125 C2.28648677 39.14498064 1.00205959 52.12388767 -2.1875 65.25 C-2.40108154 66.13131592 -2.61466309 67.01263184 -2.8347168 67.9206543 C-6.66615087 83.1173632 -12.59505232 97.22477844 -20 111 C-20.31549805 111.60150879 -20.63099609 112.20301758 -20.95605469 112.82275391 C-27.4245131 125.11282488 -35.849271 135.612686 -45 146 C-49.07376031 144.38989473 -51.76507069 141.46177729 -54.75 138.375 C-55.25660156 137.859375 -55.76320313 137.34375 -56.28515625 136.8125 C-57.52803902 135.54616661 -58.76465276 134.2736856 -60 133 C-57.65285182 129.3890028 -55.23885892 126.01724367 -52.4375 122.75 C-28.81935885 93.41424554 -17.6985641 56.22987983 -17.9375 18.9375 C-17.94252686 17.58138187 -17.94708766 16.22526192 -17.95117188 14.86914062 C-17.96287911 11.57940765 -17.98081187 8.28969785 -18 5 C-9.09 2.525 -9.09 2.525 0 0 Z " fill="#85181A" transform="translate(691,346)"/>
<path d="M0 0 C0.53665283 0.16604736 1.07330566 0.33209473 1.6262207 0.50317383 C35.64166928 10.91473962 66.60103767 11.14977475 101 2 C103.34136952 4.45078762 105.67167078 6.91182546 108 9.375 C108.66773438 10.07367187 109.33546875 10.77234375 110.0234375 11.4921875 C110.65507813 12.1625 111.28671875 12.8328125 111.9375 13.5234375 C112.52402344 14.14138184 113.11054687 14.75932617 113.71484375 15.39599609 C115 17 115 17 115 19 C108.33580532 21.68065359 101.5563572 23.77030554 94.625 25.625 C93.495177 25.93377075 93.495177 25.93377075 92.3425293 26.2487793 C79.25483757 29.67363472 66.45137296 30.40974103 53 30.375 C52.13494843 30.3737915 51.26989685 30.37258301 50.37863159 30.37133789 C28.32249267 30.28772915 6.01950998 27.00975499 -14 17 C-12.44363758 13.37409619 -10.2207077 10.83141085 -7.5625 7.9375 C-6.78003906 7.08027344 -5.99757813 6.22304688 -5.19140625 5.33984375 C-3.49031491 3.52352697 -1.7649835 1.75297035 0 0 Z " fill="#85181A" transform="translate(459,520)"/>
<path d="M0 0 C0.77328348 17.50627874 0.77328348 17.50627874 -4 25 C-4.53625 25.9075 -5.0725 26.815 -5.625 27.75 C-12.25451633 34.03059442 -20.49242379 36.34215871 -29.40234375 36.2109375 C-34.99829804 35.75652918 -38.70212528 34.08156226 -43 30.5 C-45.66275352 26.85575371 -45.76416918 23.08759495 -45.54296875 18.6875 C-44.65411092 14.28797345 -42.58219311 11.62649607 -39 9 C-33.53723119 5.75304354 -28.13573484 4.0584556 -21.9375 2.8125 C-20.7918457 2.5659668 -20.7918457 2.5659668 -19.62304688 2.31445312 C-13.08320161 0.93263809 -6.71152219 -0.16369566 0 0 Z " fill="#F9F4F1" transform="translate(332,795)"/>
<path d="M0 0 C5.52968994 3.0359082 9.11210114 5.63303494 11.1875 11.75 C12.05943017 18.55297168 12.00227893 24.48650728 7.78515625 30.125 C3.22719557 34.76096979 -1.3972407 35.99112447 -7.8125 36.25 C-14.08635847 36.01265353 -18.79440945 34.6398217 -23.375 30.25390625 C-27.74262094 25.27829262 -28.22381851 20.99459965 -28.15625 14.609375 C-27.61606359 10.11600622 -25.82221953 7.07323198 -22.8125 3.75 C-16.10380546 -1.48278174 -8.11561894 -3.28192062 0 0 Z " fill="#851718" transform="translate(639.8125,674.25)"/>
<path d="M0 0 C42.9 0 85.8 0 130 0 C130 10.56 130 21.12 130 32 C129.67 32 129.34 32 129 32 C129 22.43 129 12.86 129 3 C87.09 3 45.18 3 2 3 C2 11.58 2 20.16 2 29 C17.18 29 32.36 29 48 29 C48.495 30.485 48.495 30.485 49 32 C32.83 32 16.66 32 0 32 C0 21.44 0 10.88 0 0 Z " fill="#822526" transform="translate(123,680)"/>
<path d="M0 0 C1.56047445 0.00015913 3.12095416 0.00585397 4.68139648 0.01586914 C5.5012352 0.01728409 6.32107391 0.01869904 7.16575623 0.02015686 C9.79470406 0.0257725 12.42356797 0.0383276 15.05249023 0.05102539 C16.8304838 0.05603838 18.60847869 0.06060163 20.38647461 0.06469727 C24.75437181 0.07489787 29.12208664 0.09447007 33.48999023 0.11352539 C33.48999023 10.34352539 33.48999023 20.57352539 33.48999023 31.11352539 C42.65981933 31.07393021 42.65981933 31.07393021 51.82958984 31.0234375 C52.96404541 31.02093994 54.09850098 31.01844238 55.26733398 31.01586914 C57.01904907 31.00801392 57.01904907 31.00801392 58.80615234 31 C61.48999023 31.11352539 61.48999023 31.11352539 62.48999023 32.11352539 C62.57766136 34.18614616 62.59694897 36.26172833 62.58764648 38.33618164 C62.5828125 40.22626953 62.5828125 40.22626953 62.57788086 42.15454102 C62.56952427 43.49503648 62.56105931 44.83553127 62.55249023 46.17602539 C62.54747684 47.52042481 62.54291365 48.86482599 62.53881836 50.20922852 C62.52698511 53.5107048 62.51049994 56.81209342 62.48999023 60.11352539 C62.15999023 60.11352539 61.82999023 60.11352539 61.48999023 60.11352539 C61.48999023 51.20352539 61.48999023 42.29352539 61.48999023 33.11352539 C51.91999023 33.11352539 42.34999023 33.11352539 32.48999023 33.11352539 C32.48999023 22.55352539 32.48999023 11.99352539 32.48999023 1.11352539 C20.93999023 1.11352539 9.38999023 1.11352539 -2.51000977 1.11352539 C-2.51000977 11.67352539 -2.51000977 22.23352539 -2.51000977 33.11352539 C-9.11000977 33.11352539 -15.71000977 33.11352539 -22.51000977 33.11352539 C-22.51000977 42.02352539 -22.51000977 50.93352539 -22.51000977 60.11352539 C-15.91000977 60.11352539 -9.31000977 60.11352539 -2.51000977 60.11352539 C-2.51000977 83.54352539 -2.51000977 106.97352539 -2.51000977 131.11352539 C-4.59878685 126.93597122 -4.75444615 125.15585818 -4.73706055 120.60083008 C-4.7373526 119.95651031 -4.73764465 119.31219055 -4.73794556 118.64834595 C-4.73655671 116.52722518 -4.72101692 114.40645949 -4.70532227 112.28540039 C-4.70159054 110.81138297 -4.69874432 109.33736307 -4.69674683 107.86334229 C-4.68912288 103.99008292 -4.66948512 100.11697434 -4.64733887 96.24377441 C-4.6268537 92.28892049 -4.6177394 88.33404212 -4.60766602 84.37915039 C-4.58623795 76.62386547 -4.55106602 68.8687358 -4.51000977 61.11352539 C-10.78000977 61.11352539 -17.05000977 61.11352539 -23.51000977 61.11352539 C-23.53292371 57.00174612 -23.55284927 52.89012881 -23.56494141 48.77832031 C-23.56998056 47.37857311 -23.57681193 45.97883119 -23.58544922 44.57910156 C-23.59753296 42.57106762 -23.60270783 40.56299582 -23.60766602 38.55493164 C-23.61290283 37.34522705 -23.61813965 36.13552246 -23.62353516 34.88916016 C-23.51000977 32.11352539 -23.51000977 32.11352539 -22.51000977 31.11352539 C-21.16733564 31.02720665 -19.82026655 31.00646066 -18.47485352 31.01586914 C-17.6659668 31.0190918 -16.85708008 31.02231445 -16.02368164 31.02563477 C-15.17354492 31.03401367 -14.3234082 31.04239258 -13.44750977 31.05102539 C-12.59350586 31.05553711 -11.73950195 31.06004883 -10.85961914 31.06469727 C-8.74305313 31.07652166 -6.62652292 31.0944577 -4.51000977 31.11352539 C-4.51786499 29.75819702 -4.51786499 29.75819702 -4.52587891 28.37548828 C-4.54288662 25.0340105 -4.5554431 21.69257847 -4.56494141 18.35107422 C-4.56998077 16.90282467 -4.5768123 15.45458022 -4.58544922 14.00634766 C-4.59753224 11.92877951 -4.60324188 9.85127842 -4.60766602 7.77368164 C-4.61290283 6.52208252 -4.61813965 5.2704834 -4.62353516 3.98095703 C-4.45713205 -0.22206336 -4.31674509 0.13961789 0 0 Z M32.48999023 60.11352539 C42.05999023 60.11352539 51.62999023 60.11352539 61.48999023 60.11352539 C61.48999023 60.44352539 61.48999023 60.77352539 61.48999023 61.11352539 C52.24999023 61.11352539 43.00999023 61.11352539 33.48999023 61.11352539 C33.48999023 80.58352539 33.48999023 100.05352539 33.48999023 120.11352539 C33.15999023 120.11352539 32.82999023 120.11352539 32.48999023 120.11352539 C32.48999023 100.31352539 32.48999023 80.51352539 32.48999023 60.11352539 Z " fill="#FDFDFC" transform="translate(530.510009765625,692.886474609375)"/>
<path d="M0 0 C0.33 0 0.66 0 1 0 C1 32.67 1 65.34 1 99 C10.57 99 20.14 99 30 99 C29.814375 94.813125 29.62875 90.62625 29.4375 86.3125 C28.63849235 65.20459787 29.37557201 44.1045334 30 23 C30.33 23 30.66 23 31 23 C31.33 15.74 31.66 8.48 32 1 C32.33 1 32.66 1 33 1 C33 34.33 33 67.66 33 102 C22.11 102 11.22 102 0 102 C0 68.34 0 34.68 0 0 Z " fill="#8F2325" transform="translate(690,752)"/>
<path d="M0 0 C0.33 0 0.66 0 1 0 C1 4.29 1 8.58 1 13 C10.9 13 20.8 13 31 13 C32.3767748 15.7535496 32.12969689 17.98840409 32.1328125 21.06640625 C32.13410156 22.27361328 32.13539063 23.48082031 32.13671875 24.72460938 C32.13285156 25.99111328 32.12898437 27.25761719 32.125 28.5625 C32.13080078 30.46805664 32.13080078 30.46805664 32.13671875 32.41210938 C32.13542969 33.61802734 32.13414062 34.82394531 32.1328125 36.06640625 C32.13168457 37.17959229 32.13055664 38.29277832 32.12939453 39.43969727 C32 42 32 42 31 43 C20.77 43 10.54 43 0 43 C0 76 0 109 0 143 C-0.33 143 -0.66 143 -1 143 C-1 109.67 -1 76.34 -1 42 C9.23 42 19.46 42 30 42 C30 33.09 30 24.18 30 15 C19.77 15 9.54 15 -1 15 C-0.67 10.05 -0.34 5.1 0 0 Z M-36 143 C-24.45 143 -12.9 143 -1 143 C-1 143.33 -1 143.66 -1 144 C-12.55 144 -24.1 144 -36 144 C-36 143.67 -36 143.34 -36 143 Z " fill="#FEFDFD" transform="translate(724,711)"/>
<path d="M0 0 C0.33 0 0.66 0 1 0 C1 10.56 1 21.12 1 32 C-5.27 32 -11.54 32 -18 32 C-18 39.92 -18 47.84 -18 56 C-12.12116997 55.96042231 -12.12116997 55.96042231 -6.24243164 55.90991211 C-5.51403076 55.90741455 -4.78562988 55.90491699 -4.03515625 55.90234375 C-3.2862915 55.89710693 -2.53742676 55.89187012 -1.76586914 55.88647461 C0 56 0 56 1 57 C1.09425595 59.14743549 1.11742648 61.29801026 1.11352539 63.44750977 C1.11367142 64.12065216 1.11381744 64.79379456 1.1139679 65.48733521 C1.11326878 67.72205784 1.10547652 69.9566981 1.09765625 72.19140625 C1.09579206 73.73697362 1.09436816 75.28254157 1.09336853 76.82810974 C1.0895434 80.90357077 1.07971317 84.97899637 1.06866455 89.05444336 C1.05845032 93.21011882 1.05387089 97.36579999 1.04882812 101.52148438 C1.03809089 109.68100587 1.02101454 117.84049853 1 126 C0.67 126 0.34 126 0 126 C0 103.56 0 81.12 0 58 C-6.6 58 -13.2 58 -20 58 C-20 49.09 -20 40.18 -20 31 C-13.4 31 -6.8 31 0 31 C0 20.77 0 10.54 0 0 Z " fill="#680F0E" transform="translate(528,695)"/>
<path d="M0 0 C11.55 0 23.1 0 35 0 C35 10.56 35 21.12 35 32 C34.01 31.67 33.02 31.34 32 31 C32 21.76 32 12.52 32 3 C21.77 3 11.54 3 1 3 C0.67 2.01 0.34 1.02 0 0 Z " fill="#842020" transform="translate(528,694)"/>
<path d="M0 0 C0.33 0 0.66 0 1 0 C1 33.33 1 66.66 1 101 C-9.89 101 -20.78 101 -32 101 C-32 100.34 -32 99.68 -32 99 C-21.77 99 -11.54 99 -1 99 C-0.67 66.33 -0.34 33.66 0 0 Z " fill="#93302F" transform="translate(722,753)"/>
<path d="M0 0 C0.33 0 0.66 0 1 0 C0.99419922 0.89976562 0.98839844 1.79953125 0.98242188 2.7265625 C0.9411642 14.49089293 1.19965151 26.24004626 1.5 38 C1.54835723 39.95051638 1.5965354 41.9010372 1.64453125 43.8515625 C1.76096294 48.567762 1.87979559 53.28389521 2 58 C1.01 57.67 0.02 57.34 -1 57 C-2.90169548 38.01700405 -2.70092176 18.88233692 0 0 Z " fill="#812223" transform="translate(261,339)"/>
<path d="M0 0 C-0.33 12.21 -0.66 24.42 -1 37 C-4 34 -4 34 -4.35644531 31.70678711 C-4.34709961 30.8225708 -4.33775391 29.93835449 -4.328125 29.02734375 C-4.32296875 28.04443359 -4.3178125 27.06152344 -4.3125 26.04882812 C-4.291875 25.02208984 -4.27125 23.99535156 -4.25 22.9375 C-4.24484375 21.93783203 -4.2396875 20.93816406 -4.234375 19.90820312 C-4.08995797 6.01708965 -4.08995797 6.01708965 -3 1 C-1 0 -1 0 0 0 Z " fill="#872324" transform="translate(335,346)"/>
<path d="M0 0 C13.2 0 26.4 0 40 0 C40 0.66 40 1.32 40 2 C27.46 2 14.92 2 2 2 C2.33 3.65 2.66 5.3 3 7 C1 5 1 5 0 0 Z " fill="#FDFCFB" transform="translate(760,724)"/>
<path d="M0 0 C0.61875 0.7734375 0.61875 0.7734375 1.25 1.5625 C-1.06 1.8925 -3.37 2.2225 -5.75 2.5625 C-5.58886719 3.83351563 -5.42773438 5.10453125 -5.26171875 6.4140625 C-4.6882347 11.59673428 -4.56638273 16.72687477 -4.5625 21.9375 C-4.55025391 22.82566406 -4.53800781 23.71382813 -4.52539062 24.62890625 C-4.52345703 25.48097656 -4.52152344 26.33304687 -4.51953125 27.2109375 C-4.51542236 27.97583496 -4.51131348 28.74073242 -4.50708008 29.52880859 C-4.75 31.5625 -4.75 31.5625 -6.75 34.5625 C-6.94215767 29.89982843 -7.12089491 25.2369108 -7.28710938 20.57324219 C-7.3455764 18.98618721 -7.40773514 17.39926381 -7.47363281 15.8125 C-7.5676169 13.53409787 -7.64839523 11.2555552 -7.7265625 8.9765625 C-7.75875885 8.26505035 -7.7909552 7.55353821 -7.8241272 6.82046509 C-7.8776313 5.06845267 -7.82274185 3.31381916 -7.75 1.5625 C-5.17554674 -1.01195326 -3.09427103 -2.54172263 0 0 Z " fill="#ECDAD9" transform="translate(678.75,348.4375)"/>
<path d="M0 0 C2 3 2 3 2 5 C-8.89 5 -19.78 5 -31 5 C-31 4.34 -31 3.68 -31 3 C-20.77 3 -10.54 3 0 3 C0 2.01 0 1.02 0 0 Z " fill="#883332" transform="translate(721,849)"/>
<path d="M0 0 C0.66 0.33 1.32 0.66 2 1 C1.24074219 1.73605469 0.48148437 2.47210938 -0.30078125 3.23046875 C-1.30495521 4.2158731 -2.30884654 5.20156552 -3.3125 6.1875 C-3.81201172 6.67025391 -4.31152344 7.15300781 -4.82617188 7.65039062 C-7.77484373 10.56000722 -9.99019091 13.38852766 -12 17 C-14 19.3125 -14 19.3125 -16 21 C-16.99 21 -17.98 21 -19 21 C-19.33 21.99 -19.66 22.98 -20 24 C-20.99 23.34 -21.98 22.68 -23 22 C-22.26136719 21.33355469 -21.52273438 20.66710937 -20.76171875 19.98046875 C-13.63228567 13.5145413 -6.74611279 6.86563054 0 0 Z " fill="#741011" transform="translate(475,415)"/>
<path d="M0 0 C1.15145508 -0.01836914 1.15145508 -0.01836914 2.32617188 -0.03710938 C6.22167874 -0.04729815 8.1241199 -0.02142006 11.4375 2.1875 C7.50357877 3.46807332 3.52827625 3.37129459 -0.5625 3.375 C-1.2740625 3.38724609 -1.985625 3.39949219 -2.71875 3.41210938 C-6.496987 3.4226828 -9.35943658 3.29785168 -12.5625 1.1875 C-8.33406021 0.00457524 -4.36395408 0.00368266 0 0 Z " fill="#842727" transform="translate(442.5625,853.8125)"/>
<path d="M0 0 C0.6875 1.5625 0.6875 1.5625 1 4 C0.0421975 6.35096976 -0.96157435 8.68351201 -2 11 C-2.39764263 12.98821313 -2.75455166 14.98732362 -3 17 C-3.66 17 -4.32 17 -5 17 C-5.10957031 17.68707031 -5.21914063 18.37414062 -5.33203125 19.08203125 C-5.49058594 19.98308594 -5.64914062 20.88414062 -5.8125 21.8125 C-5.96332031 22.70582031 -6.11414063 23.59914063 -6.26953125 24.51953125 C-7.05395393 27.18321256 -7.88627799 28.25690322 -10 30 C-9.82984375 29.37996094 -9.6596875 28.75992187 -9.484375 28.12109375 C-9.24203125 27.23550781 -8.9996875 26.34992188 -8.75 25.4375 C-8.47671875 24.44878906 -8.2034375 23.46007812 -7.921875 22.44140625 C-7.25527748 19.95296381 -6.62134351 17.46788641 -6.015625 14.96484375 C-5.84708008 14.28687744 -5.67853516 13.60891113 -5.50488281 12.91040039 C-5.01603477 10.93964306 -4.53906277 8.96595162 -4.0625 6.9921875 C-3.711875 6.00476563 -3.36125 5.01734375 -3 4 C-2.01 3.67 -1.02 3.34 0 3 C0 2.01 0 1.02 0 0 Z " fill="#F3E8E8" transform="translate(761,422)"/>
<path d="M0 0 C0.78955078 -0.01224609 1.57910156 -0.02449219 2.39257812 -0.03710938 C4.45057435 -0.04237279 6.50812009 0.06543715 8.5625 0.1875 C9.2225 0.8475 9.8825 1.5075 10.5625 2.1875 C7.07203395 3.35098868 4.23972983 3.35584776 0.5625 3.375 C-0.675 3.38917969 -1.9125 3.40335938 -3.1875 3.41796875 C-6.4375 3.1875 -6.4375 3.1875 -9.4375 1.1875 C-7.33618615 -0.91381385 -2.89603678 0.00235259 0 0 Z " fill="#822021" transform="translate(294.4375,853.8125)"/>
<path d="M0 0 C2.91157394 2.91157394 2.99261585 4.77109131 3.125 8.875 C3.01171244 15.04917205 3.01171244 15.04917205 2 18 C-0.0625 19.8125 -0.0625 19.8125 -2 21 C-1.67 19.35 -1.34 17.7 -1 16 C-0.34 16 0.32 16 1 16 C0.67 15.34 0.34 14.68 0 14 C-0.07116382 11.62597499 -0.08409085 9.24999323 -0.0625 6.875 C-0.05347656 5.59367188 -0.04445313 4.31234375 -0.03515625 2.9921875 C-0.02355469 2.00476563 -0.01195312 1.01734375 0 0 Z " fill="#832425" transform="translate(709,581)"/>
<path d="M0 0 C1.04027344 -0.01417969 2.08054687 -0.02835938 3.15234375 -0.04296875 C6.01296613 0.18357718 7.63920151 0.71016381 10.0625 2.1875 C4.71953984 3.61228938 -2.08833939 4.43611692 -7.24609375 2.17578125 C-7.80425781 1.84964844 -8.36242187 1.52351562 -8.9375 1.1875 C-5.74593552 0.12364517 -3.35252524 0.02072018 0 0 Z " fill="#822324" transform="translate(567.9375,852.8125)"/>
<path d="M0 0 C2 2 2 2 2.01171875 5.08203125 C1.90472656 6.31308594 1.79773438 7.54414063 1.6875 8.8125 C1.58824219 10.03582031 1.48898437 11.25914062 1.38671875 12.51953125 C1.06620929 15.40411635 0.6306399 18.17020556 0 21 C-0.99 20.67 -1.98 20.34 -3 20 C-2.01 13.4 -1.02 6.8 0 0 Z " fill="#F1E4E3" transform="translate(763,399)"/>
<path d="M0 0 C0.99 0.66 1.98 1.32 3 2 C2.67 2.66 2.34 3.32 2 4 C1.01 3.34 0.02 2.68 -1 2 C-1.33 2.99 -1.66 3.98 -2 5 C-3.60320974 5.19551338 -5.20762986 5.38111983 -6.8125 5.5625 C-7.70582031 5.66691406 -8.59914063 5.77132812 -9.51953125 5.87890625 C-12 6 -12 6 -15 5 C-4.63636364 1 -4.63636364 1 0 0 Z " fill="#751314" transform="translate(559,522)"/>
<path d="M0 0 C0.66 0.33 1.32 0.66 2 1 C1.67 8.92 1.34 16.84 1 25 C0.67 25 0.34 25 0 25 C-0.19585353 21.02119772 -0.3802867 17.04194844 -0.5625 13.0625 C-0.61857422 11.92619141 -0.67464844 10.78988281 -0.73242188 9.61914062 C-0.78076172 8.53955078 -0.82910156 7.45996094 -0.87890625 6.34765625 C-0.9260376 5.34742432 -0.97316895 4.34719238 -1.02172852 3.31665039 C-1 1 -1 1 0 0 Z " fill="#891F20" transform="translate(590,253)"/>
<path d="M0 0 C0.33 0 0.66 0 1 0 C1.66 6.27 2.32 12.54 3 19 C2.01 18.67 1.02 18.34 0 18 C-0.19484938 15.56288386 -0.38115178 13.12562602 -0.5625 10.6875 C-0.64661133 9.65206055 -0.64661133 9.65206055 -0.73242188 8.59570312 C-0.96581505 5.37487726 -1.03224218 3.09672655 0 0 Z " fill="#F1E2E2" transform="translate(740,326)"/>
<path d="M0 0 C0.33 0 0.66 0 1 0 C1.33 8.25 1.66 16.5 2 25 C1.01 25 0.02 25 -1 25 C-0.67 16.75 -0.34 8.5 0 0 Z " fill="#E6CFCE" transform="translate(588,262)"/>
<path d="M0 0 C0.66 0.33 1.32 0.66 2 1 C0.30672273 2.82885996 -1.40230337 4.63670184 -3.125 6.4375 C-3.8365625 7.2119043 -3.8365625 7.2119043 -4.5625 8.00195312 C-7.88539899 11.43711221 -10.22375688 12.72362985 -15 13 C-11.47937132 9.22789784 -11.47937132 9.22789784 -9.09375 8.09375 C-6.67737163 6.83146279 -5.13662186 5.33418424 -3.25 3.375 C-2.63640625 2.74335938 -2.0228125 2.11171875 -1.390625 1.4609375 C-0.93171875 0.97882813 -0.4728125 0.49671875 0 0 Z " fill="#8A2223" transform="translate(417,473)"/>
<path d="M0 0 C0 1.65 0 3.3 0 5 C-0.99 4.814375 -1.98 4.62875 -3 4.4375 C-7.17087678 3.82338317 -10.85034269 4.34479095 -15 5 C-12.44031792 2.44031792 -10.44049902 2.20169107 -6.9375 1.375 C-5.85339844 1.11460937 -4.76929688 0.85421875 -3.65234375 0.5859375 C-1 0 -1 0 0 0 Z " fill="#751112" transform="translate(414,812)"/>
<path d="M0 0 C0 3.88939843 -1.19737718 4.7649445 -3.75 7.625 C-4.44609375 8.42164063 -5.1421875 9.21828125 -5.859375 10.0390625 C-8.01014951 12.00929755 -9.15547268 12.6284176 -12 13 C-12 12.34 -12 11.68 -12 11 C-10.390625 9.4140625 -10.390625 9.4140625 -8.25 7.625 C-5.3756268 5.18382134 -2.61456008 2.72350008 0 0 Z " fill="#F6EBEA" transform="translate(357,602)"/>
<path d="M0 0 C0.33 0.66 0.66 1.32 1 2 C0.109375 3.83984375 0.109375 3.83984375 -1.25 5.9375 C-1.90742187 6.97197266 -1.90742187 6.97197266 -2.578125 8.02734375 C-3.92063972 9.88989851 -5.3288332 11.43205233 -7 13 C-7.66 12.67 -8.32 12.34 -9 12 C-8.54625 11.608125 -8.0925 11.21625 -7.625 10.8125 C-5.31455893 8.23546957 -4 5.49258493 -4 2 C-2.68 1.34 -1.36 0.68 0 0 Z " fill="#720E0E" transform="translate(709,599)"/>
<path d="M0 0 C2.97 0.33 5.94 0.66 9 1 C7.35 2.65 5.7 4.3 4 6 C2.62437146 4.71034824 1.29233607 3.37310707 0 2 C0 1.34 0 0.68 0 0 Z " fill="#7E1E1E" transform="translate(320,530)"/>
<path d="M0 0 C1 4 1 4 0.00390625 5.921875 C-0.47175781 6.52515625 -0.94742188 7.1284375 -1.4375 7.75 C-1.91058594 8.36359375 -2.38367188 8.9771875 -2.87109375 9.609375 C-3.24363281 10.06828125 -3.61617187 10.5271875 -4 11 C-4.99 10.34 -5.98 9.68 -7 9 C-4.69 6.03 -2.38 3.06 0 0 Z " fill="#791415" transform="translate(646,459)"/>
<path d="M0 0 C2.6015625 0.0234375 2.6015625 0.0234375 5.625 0.375 C6.62789063 0.48585938 7.63078125 0.59671875 8.6640625 0.7109375 C9.82035156 0.85402344 9.82035156 0.85402344 11 1 C11 1.66 11 2.32 11 3 C12.65 3.33 14.3 3.66 16 4 C12.02549507 5.51553092 8.79518851 4.49888623 4.75 3.5625 C3.48671875 3.27503906 2.2234375 2.98757813 0.921875 2.69140625 C-0.04234375 2.46324219 -1.0065625 2.23507812 -2 2 C-1.34 1.34 -0.68 0.68 0 0 Z " fill="#F1E4E3" transform="translate(478,524)"/>
<path d="M0 0 C9.59453303 2.70615034 9.59453303 2.70615034 13 7 C12.67 7.66 12.34 8.32 12 9 C10.18381144 7.88096454 8.37214474 6.75458716 6.5625 5.625 C5.55316406 4.99851562 4.54382813 4.37203125 3.50390625 3.7265625 C1 2 1 2 0 0 Z " fill="#751414" transform="translate(291,300)"/>
<path d="M0 0 C0.75 1.6875 0.75 1.6875 1 4 C-0.9375 6.75 -0.9375 6.75 -3 9 C-4.32 8.67 -5.64 8.34 -7 8 C-6.02133662 6.85373678 -5.04205413 5.70800212 -4.0625 4.5625 C-3.51722656 3.92441406 -2.97195313 3.28632813 -2.41015625 2.62890625 C-1.63204305 1.73008851 -0.84063472 0.84063472 0 0 Z " fill="#842525" transform="translate(619,201)"/>
<path d="M0 0 C0.33 0 0.66 0 1 0 C1.02712066 1.43739513 1.04645067 2.87493863 1.0625 4.3125 C1.07410156 5.11300781 1.08570313 5.91351562 1.09765625 6.73828125 C1 9 1 9 0 12 C-2.0625 13.1875 -2.0625 13.1875 -4 14 C-3.71831703 12.04020573 -3.42433283 10.08217622 -3.125 8.125 C-2.96257813 7.03445313 -2.80015625 5.94390625 -2.6328125 4.8203125 C-2 2 -2 2 0 0 Z " fill="#F3E6E3" transform="translate(653,688)"/>
<path d="M0 0 C0.99 0.99 1.98 1.98 3 3 C2.34 5.31 1.68 7.62 1 10 C0.01 9.67 -0.98 9.34 -2 9 C-2.25 3.375 -2.25 3.375 0 0 Z " fill="#F1E6E3" transform="translate(665,244)"/>
<path d="M0 0 C0 0.99 0 1.98 0 3 C-0.969375 2.979375 -1.93875 2.95875 -2.9375 2.9375 C-5.87465895 2.64381501 -5.87465895 2.64381501 -7 4 C-8.66617115 4.04063832 -10.33388095 4.042721 -12 4 C-12 3.01 -12 2.02 -12 1 C-7.915021 0.45533613 -4.1274515 0 0 0 Z " fill="#872726" transform="translate(551,597)"/>
<path d="M0 0 C0.99 0 1.98 0 3 0 C4.33333333 1.33333333 5.66666667 2.66666667 7 4 C9.28107661 5.45516956 11.61470447 6.7156101 14 8 C13.34 8.66 12.68 9.32 12 10 C5.565 6.04 5.565 6.04 -1 2 C-0.67 1.34 -0.34 0.68 0 0 Z " fill="#F5EEEC" transform="translate(335,133)"/>
<path d="M0 0 C-0.33 0.99 -0.66 1.98 -1 3 C-4.3 3.33 -7.6 3.66 -11 4 C-11 3.01 -11 2.02 -11 1 C-7.32589215 -0.17571451 -3.83070817 -0.07366746 0 0 Z " fill="#F6EFEC" transform="translate(479,123)"/>
<path d="M0 0 C0.66 0 1.32 0 2 0 C2.66 3.96 3.32 7.92 4 12 C3.01 12.495 3.01 12.495 2 13 C0.24252386 8.49646738 -0.19294408 4.82360189 0 0 Z " fill="#F7EEED" transform="translate(262,415)"/>
<path d="M0 0 C0 3.15084005 -0.45473667 4.33871316 -2 7 C-2.66 7.66 -3.32 8.32 -4 9 C-4.99 9 -5.98 9 -7 9 C-5.44499019 5.18315774 -2.96404505 2.80804268 0 0 Z " fill="#761213" transform="translate(688,518)"/>
<path d="M0 0 C0.99 0.33 1.98 0.66 3 1 C3.29296875 6.95703125 3.29296875 6.95703125 3 9 C2.01 9.99 1.02 10.98 0 12 C0 8.04 0 4.08 0 0 Z " fill="#882020" transform="translate(762,380)"/>
<path d="M0 0 C0.66 0.33 1.32 0.66 2 1 C0.34908222 5.29238623 -2.73754566 7.8793915 -6 11 C-6.66 10.67 -7.32 10.34 -8 10 C-7.236875 9.0925 -6.47375 8.185 -5.6875 7.25 C-3.71516893 4.885444 -1.81737966 2.48694058 0 0 Z " fill="#892224" transform="translate(639,182)"/>
<path d="M0 0 C-2.67871003 1.78580669 -3.99677943 2.3430455 -7 3 C-7.99 3.33 -8.98 3.66 -10 4 C-10 3.34 -10 2.68 -10 2 C-10.99 1.67 -11.98 1.34 -13 1 C-8.20862412 -0.6290678 -4.94367454 -1.20577428 0 0 Z " fill="#862122" transform="translate(403,817)"/>
<path d="M0 0 C1.43861294 0.08746284 2.87597508 0.19565348 4.3125 0.3125 C5.11300781 0.37050781 5.91351563 0.42851562 6.73828125 0.48828125 C9.36272334 1.08206694 10.30820672 1.95780294 12 4 C5.375 4.25 5.375 4.25 2 2 C2 3.65 2 5.3 2 7 C1.67 7 1.34 7 1 7 C0.67 4.69 0.34 2.38 0 0 Z " fill="#852526" transform="translate(334,338)"/>
<path d="M0 0 C1.62418745 -0.08090971 3.24951745 -0.13914995 4.875 -0.1875 C5.77992188 -0.22230469 6.68484375 -0.25710938 7.6171875 -0.29296875 C8.79667969 -0.14794922 8.79667969 -0.14794922 10 0 C10.66 0.99 11.32 1.98 12 3 C10.37581255 3.08090971 8.75048255 3.13914995 7.125 3.1875 C5.76761719 3.23970703 5.76761719 3.23970703 4.3828125 3.29296875 C3.20332031 3.14794922 3.20332031 3.14794922 2 3 C1.34 2.01 0.68 1.02 0 0 Z " fill="#F5ECE8" transform="translate(497,527)"/>
<path d="M0 0 C0.66 0.66 1.32 1.32 2 2 C-0.97 4.64 -3.94 7.28 -7 10 C-7.66 9.67 -8.32 9.34 -9 9 C-6.03 6.03 -3.06 3.06 0 0 Z " fill="#F2E4E2" transform="translate(563,385)"/>
<path d="M0 0 C0.61875 0.7734375 0.61875 0.7734375 1.25 1.5625 C0.115625 1.68625 -1.01875 1.81 -2.1875 1.9375 C-3.9509375 2.246875 -3.9509375 2.246875 -5.75 2.5625 C-6.08 3.2225 -6.41 3.8825 -6.75 4.5625 C-7.08 3.5725 -7.41 2.5825 -7.75 1.5625 C-5.17554674 -1.01195326 -3.09427103 -2.54172263 0 0 Z " fill="#F0E3E1" transform="translate(678.75,348.4375)"/>
<path d="M0 0 C1.55955444 3.11910889 0.62673502 5.63842127 0 9 C-1.0625 11.9375 -1.0625 11.9375 -2 14 C-2.33 14 -2.66 14 -3 14 C-3.32374517 8.49633208 -3.53286034 4.56327794 0 0 Z " fill="#6E0C0D" transform="translate(615,681)"/>
<path d="M0 0 C5.75 1.875 5.75 1.875 8 3 C7.67 3.99 7.34 4.98 7 6 C4.36 4.68 1.72 3.36 -1 2 C-0.67 1.34 -0.34 0.68 0 0 Z " fill="#F6EFEC" transform="translate(396,593)"/>
<path d="M0 0 C0 0.66 0 1.32 0 2 C0.99 2.33 1.98 2.66 3 3 C0.18515955 4.40742022 -1.56936113 3.66652164 -4.625 3.0625 C-5.62789063 2.86785156 -6.63078125 2.67320313 -7.6640625 2.47265625 C-8.43492187 2.31667969 -9.20578125 2.16070312 -10 2 C-6.48375245 0.05841983 -4.0284349 -0.18311068 0 0 Z " fill="#F3E4E4" transform="translate(288,113)"/>
<path d="M0 0 C0.98726527 2.66561622 1.0275526 3.90126985 0.25 6.6875 C-1 9 -1 9 -4 10 C-2.8905928 6.51329166 -1.73662334 3.22515763 0 0 Z " fill="#F4EBE8" transform="translate(291,757)"/>
<path d="M0 0 C0 3 0 3 -1.53125 4.60546875 C-2.1809375 5.12753906 -2.830625 5.64960937 -3.5 6.1875 C-4.1496875 6.71730469 -4.799375 7.24710938 -5.46875 7.79296875 C-5.9740625 8.19128906 -6.479375 8.58960938 -7 9 C-7.33 8.01 -7.66 7.02 -8 6 C-7.05125 5.38125 -6.1025 4.7625 -5.125 4.125 C-2.05554891 2.18029031 -2.05554891 2.18029031 0 0 Z " fill="#8A2324" transform="translate(457,524)"/>
<path d="M0 0 C0.66 0.33 1.32 0.66 2 1 C-1.625 5.875 -1.625 5.875 -5 7 C-3.70700306 4.11562221 -2.34058637 2.12780579 0 0 Z " fill="#F2E3E1" transform="translate(619,327)"/>
<path d="M0 0 C0.99 0.66 1.98 1.32 3 2 C1.02 3.98 -0.96 5.96 -3 8 C-3.66 7.67 -4.32 7.34 -5 7 C-1.125 1.125 -1.125 1.125 0 0 Z " fill="#862223" transform="translate(571,321)"/>
<path d="M0 0 C0.33 0.66 0.66 1.32 1 2 C-1.65654657 5.73884332 -3.58110387 7.64978174 -8 9 C-7.04270084 7.87411986 -6.08412105 6.7493285 -5.125 5.625 C-4.59132813 4.99851562 -4.05765625 4.37203125 -3.5078125 3.7265625 C-2.38567993 2.44163349 -1.20628025 1.20628025 0 0 Z " fill="#822D2C" transform="translate(580,312)"/>
<path d="M0 0 C0 3.44118336 -0.68964993 5.82757352 -2 9 C-2.99 9.33 -3.98 9.66 -5 10 C-4.49701212 5.59885603 -2.91227269 3.28804981 0 0 Z " fill="#731212" transform="translate(224,134)"/>
<path d="M0 0 C2.97 0.33 5.94 0.66 9 1 C9 1.99 9 2.98 9 4 C5.625 3.6875 5.625 3.6875 2 3 C1.34 2.01 0.68 1.02 0 0 Z " fill="#F6EDEA" transform="translate(555,125)"/>
<path d="M0 0 C0.66 0.33 1.32 0.66 2 1 C1.34 3.31 0.68 5.62 0 8 C-0.66 8 -1.32 8 -2 8 C-2.33 6.02 -2.66 4.04 -3 2 C-2.34 2 -1.68 2 -1 2 C-0.67 1.34 -0.34 0.68 0 0 Z " fill="#F5E8EA" transform="translate(833,805)"/>
<path d="M0 0 C1.00000429 4.00001715 0.80688405 6.05523353 0 10 C-0.99 10 -1.98 10 -3 10 C-2.01 6.7 -1.02 3.4 0 0 Z " fill="#F3E6E5" transform="translate(870,796)"/>
<path d="M0 0 C0.33 1.32 0.66 2.64 1 4 C-0.65 5.32 -2.3 6.64 -4 8 C-4.66 7.67 -5.32 7.34 -6 7 C-4.02 4.69 -2.04 2.38 0 0 Z " fill="#721010" transform="translate(696,508)"/>
<path d="M0 0 C2.83022097 3.99560608 1.76210446 7.42737323 1 12 C-1.83022097 8.00439392 -0.76210446 4.57262677 0 0 Z " fill="#862323" transform="translate(758,310)"/>
<path d="M0 0 C3.48539917 0.64544429 6.02819057 2.10134397 9 4 C8.67 4.66 8.34 5.32 8 6 C5.36 5.01 2.72 4.02 0 3 C0 2.01 0 1.02 0 0 Z " fill="#F3E9E8" transform="translate(567,201)"/>
<path d="M0 0 C-1.32 0.33 -2.64 0.66 -4 1 C-4 1.66 -4 2.32 -4 3 C-6.64 3.33 -9.28 3.66 -12 4 C-8.35616205 0.00912986 -5.26350451 -0.11696677 0 0 Z " fill="#701010" transform="translate(255,116)"/>
<path d="M0 0 C-0.33 0.66 -0.66 1.32 -1 2 C-3.06640625 2.4140625 -3.06640625 2.4140625 -5.5625 2.625 C-6.38878906 2.69976563 -7.21507812 2.77453125 -8.06640625 2.8515625 C-9.02353516 2.92503906 -9.02353516 2.92503906 -10 3 C-6.81859267 -0.48439851 -4.56758339 -1.41752588 0 0 Z " fill="#F7EEED" transform="translate(298,778)"/>
<path d="M0 0 C0.99 0.66 1.98 1.32 3 2 C-0.4352048 4.29013653 -1.985331 4.17842973 -6 4 C-6 3.34 -6 2.68 -6 2 C-3.1875 0.875 -3.1875 0.875 0 0 Z " fill="#F6EDEB" transform="translate(696,615)"/>
<path d="M0 0 C0.66 0 1.32 0 2 0 C0.44499019 3.81684226 -2.03595495 6.19195732 -5 9 C-5.66 8.67 -6.32 8.34 -7 8 C-5.88200014 6.66079162 -4.75538103 5.32877444 -3.625 4 C-2.68527344 2.88625 -2.68527344 2.88625 -1.7265625 1.75 C-1.15679688 1.1725 -0.58703125 0.595 0 0 Z " fill="#741515" transform="translate(693,188)"/>
<path d="M0 0 C0.33 0.99 0.66 1.98 1 3 C0.01 3.66 -0.98 4.32 -2 5 C-2.33 5.99 -2.66 6.98 -3 8 C-3.99 7.67 -4.98 7.34 -6 7 C-4.02 4.69 -2.04 2.38 0 0 Z " fill="#6D0F0E" transform="translate(268,738)"/>
<path d="M0 0 C3 -0.3125 3 -0.3125 6 0 C6.66 0.66 7.32 1.32 8 2 C4.52674819 3.1577506 1.63932552 3.06866652 -2 3 C-1.34 2.01 -0.68 1.02 0 0 Z " fill="#8C2827" transform="translate(529,599)"/>
<path d="M0 0 C2.64 1.98 5.28 3.96 8 6 C7.67 6.99 7.34 7.98 7 9 C5.82737096 7.88121617 4.66204862 6.75476949 3.5 5.625 C2.8503125 4.99851562 2.200625 4.37203125 1.53125 3.7265625 C0 2 0 2 0 0 Z " fill="#EFE2E2" transform="translate(659,528)"/>
<path d="M0 0 C2.35953094 2.35953094 2.49141413 3.77895617 3 7 C2.34 7 1.68 7 1 7 C0.67 8.32 0.34 9.64 0 11 C0 7.37 0 3.74 0 0 Z " fill="#700E0F" transform="translate(743,386)"/>
<path d="M0 0 C0.99 0.66 1.98 1.32 3 2 C-0.465 4.97 -0.465 4.97 -4 8 C-2.25 2.25 -2.25 2.25 0 0 Z " fill="#8A2425" transform="translate(525,366)"/>
<path d="M0 0 C-0.99 1.485 -0.99 1.485 -2 3 C-4.3828125 3.29296875 -4.3828125 3.29296875 -7.125 3.1875 C-8.03507812 3.16042969 -8.94515625 3.13335937 -9.8828125 3.10546875 C-10.58148438 3.07066406 -11.28015625 3.03585937 -12 3 C-12 2.67 -12 2.34 -12 2 C-7.8803623 0.70756464 -4.33168317 -0.26252625 0 0 Z " fill="#761111" transform="translate(368,318)"/>
<path d="M0 0 C0.66 0.66 1.32 1.32 2 2 C-0.97 4.475 -0.97 4.475 -4 7 C-4.66 6.67 -5.32 6.34 -6 6 C-4.02 4.02 -2.04 2.04 0 0 Z " fill="#F6E8E8" transform="translate(771,250)"/>
<path d="M0 0 C2.12508244 3.18762365 2.5020163 5.26512223 3 9 C0.9375 7.3125 0.9375 7.3125 -1 5 C-0.75 2.25 -0.75 2.25 0 0 Z " fill="#F4E7E5" transform="translate(637,222)"/>
<path d="M0 0 C1.2380014 3.57644848 0.74926071 6.33694766 0 10 C-1.58538318 7.48203847 -2.0373656 6.32134414 -1.6875 3.3125 C-1 1 -1 1 0 0 Z " fill="#F5E7E6" transform="translate(777,879)"/>
<path d="M0 0 C0.99 0.33 1.98 0.66 3 1 C1 3 1 3 -2.625 3.125 C-3.73875 3.08375 -4.8525 3.0425 -6 3 C-4 2 -2 1 0 0 Z M3 0 C5 1 5 1 5 1 Z " fill="#F6EEEC" transform="translate(318,852)"/>
<path d="M0 0 C0.66 0.66 1.32 1.32 2 2 C0.35 3.32 -1.3 4.64 -3 6 C-3.66 5.67 -4.32 5.34 -5 5 C-3.35 3.35 -1.7 1.7 0 0 Z " fill="#F5EAE8" transform="translate(413,543)"/>
<path d="M0 0 C0.66 0.33 1.32 0.66 2 1 C0.35 2.98 -1.3 4.96 -3 7 C-3.66 6.34 -4.32 5.68 -5 5 C-3.35 3.35 -1.7 1.7 0 0 Z " fill="#F1E2E0" transform="translate(339,521)"/>
<path d="M0 0 C0.33 0.66 0.66 1.32 1 2 C-0.4375 4.625 -0.4375 4.625 -2 7 C-2.99 6.67 -3.98 6.34 -5 6 C-3.35 4.02 -1.7 2.04 0 0 Z " fill="#801F1F" transform="translate(451,438)"/>
<path d="M0 0 C2.50298434 2.93828597 3.46930939 5.17902761 4 9 C3.34 9 2.68 9 2 9 C2 8.01 2 7.02 2 6 C1.34 6 0.68 6 0 6 C0 4.02 0 2.04 0 0 Z " fill="#F3EAE9" transform="translate(428,216)"/>
</svg>
