<svg xmlns="http://www.w3.org/2000/svg" width="1084" height="1062" viewBox="0 0 1084 1062" version="1.1"><path d="M 252.303 178.048 C 246.553 179.184, 237.064 183.117, 230.355 187.145 C 219.257 193.808, 209.520 207.780, 205.368 223 C 202.894 232.070, 202.885 257.943, 205.352 270.500 C 213.830 313.663, 240.565 356.821, 278.500 388.582 C 284.032 393.213, 290.070 397.386, 299.020 402.764 C 304.950 406.327, 318.537 411.797, 328.261 414.537 C 340.732 418.050, 358.935 418.860, 375 416.617 C 392.766 414.136, 396.929 415.876, 411.590 431.907 C 416.918 437.733, 424.261 445.650, 427.907 449.500 C 431.553 453.350, 438.803 461.001, 444.018 466.502 C 449.233 472.003, 459.829 483.253, 467.564 491.502 C 479.796 504.546, 484.177 509.322, 492.159 518.313 C 493.071 519.341, 494.485 520.028, 495.301 519.841 C 497.700 519.289, 529 488.779, 529 486.992 C 529 486.094, 521.462 478.139, 512.250 469.314 C 479.127 437.585, 433.089 391.417, 430.482 387.317 C 427.244 382.224, 426.237 373.739, 427.944 365.934 C 434.130 337.645, 433.328 317.424, 425.143 295.343 C 415.942 270.522, 401.336 250.018, 376.420 226.943 C 350.910 203.318, 316.706 185.003, 286.957 179.039 C 276.358 176.915, 260.358 176.457, 252.303 178.048 M 781.252 184.295 C 779.319 185.012, 770.007 193.382, 758.252 204.969 C 737.282 225.637, 725.393 237.213, 680.229 280.936 C 664.680 295.989, 649.991 311.061, 647.588 314.429 C 641.757 322.600, 634.430 337.276, 632.259 345.133 C 630.749 350.601, 630.539 355.193, 630.776 377.644 C 631.031 401.863, 630.902 404.187, 629.020 409.216 C 627.191 414.105, 623.777 417.823, 594.712 446.572 C 548.688 492.099, 515.321 524.682, 473.991 564.461 C 467.111 571.082, 454.722 583.025, 446.461 591 C 438.199 598.975, 426.951 609.775, 421.466 615 C 415.981 620.225, 405.842 629.900, 398.937 636.500 C 392.031 643.100, 381.683 652.970, 375.940 658.434 C 370.198 663.897, 360.314 673.347, 353.975 679.434 C 347.637 685.520, 338.631 694.100, 333.961 698.500 C 283.037 746.486, 283.564 745.844, 283.524 760 C 283.503 767.469, 283.860 769.211, 286.469 774.359 C 294.355 789.924, 313.801 796.914, 329.289 789.752 C 336.375 786.475, 336.341 786.509, 383.435 736.009 C 387.799 731.329, 394.788 723.900, 398.966 719.500 C 406.272 711.807, 415.368 702.144, 432.384 684 C 436.768 679.325, 443.988 671.667, 448.427 666.982 C 452.867 662.296, 464.150 650.382, 473.500 640.505 C 482.850 630.628, 495.035 617.811, 500.579 612.023 C 506.122 606.236, 514.447 597.477, 519.079 592.560 C 544.632 565.434, 585.739 523.009, 640.332 467.419 C 661.261 446.108, 666.452 444.306, 691.902 449.515 C 703.642 451.918, 706.804 452.192, 717.402 451.721 C 732.302 451.060, 742.040 448.586, 755.500 442.044 C 765.801 437.038, 775.138 430.525, 783 422.862 C 787.791 418.193, 806.062 398.778, 828.045 375 C 835.417 367.025, 841.911 360.013, 842.475 359.417 C 845.886 355.814, 863.617 336.594, 864.982 335.021 C 865.885 333.979, 872.312 327.099, 879.264 319.730 C 895.354 302.678, 899.689 297.405, 900.315 294.132 C 901.421 288.349, 895.545 281, 889.815 281 C 883.923 281, 885.911 279.176, 838.047 328.510 C 796.407 371.429, 772.279 395.325, 769.276 396.617 C 766.487 397.818, 765.537 397.799, 762.225 396.473 C 755.114 393.628, 752.827 385.333, 757.432 379.092 C 758.770 377.278, 783.266 352.279, 811.867 323.538 C 840.468 294.797, 865.024 269.581, 866.435 267.501 C 874.272 255.952, 861.273 243.360, 850.094 251.673 C 848.117 253.143, 825.350 275.374, 799.500 301.074 C 739.536 360.692, 737.286 362.815, 733.233 363.598 C 728.865 364.442, 724.203 362.380, 721.885 358.580 C 717.819 351.911, 720.233 346.485, 732.093 335.643 C 745.557 323.336, 832.210 236.370, 833.570 233.800 C 838.192 225.070, 830.768 214.719, 821.153 216.485 C 818.036 217.057, 812.806 221.815, 785.500 248.921 C 734.207 299.838, 705.977 326.970, 702.316 328.868 C 697.913 331.150, 694.023 330.258, 689.754 325.989 C 685.976 322.211, 685.773 321.708, 686.264 317.351 C 686.777 312.798, 687.346 312.162, 722.267 277.113 C 767.230 231.984, 791.472 207.104, 794.570 202.906 C 798.257 197.907, 797.940 191.958, 793.750 187.556 C 790.021 183.639, 785.912 182.567, 781.252 184.295 M 517.500 218.649 C 515.850 218.842, 510.225 219.487, 505 220.084 C 478.611 223.096, 449.090 231.450, 425.750 242.509 C 419.590 245.428, 419.012 246.351, 421.750 248.885 C 424.460 251.393, 427.485 256.042, 429.773 261.218 L 431.859 265.935 442.179 261.623 C 463.601 252.671, 487.939 246.140, 512 242.888 C 524.166 241.243, 559.673 241.229, 572 242.863 C 601.149 246.729, 630.339 255.233, 653.144 266.503 C 657.036 268.427, 660.551 270, 660.956 270 C 662.617 270, 678.073 253.633, 677.593 252.382 C 676.984 250.795, 658.362 241.719, 645.078 236.536 C 611.576 223.462, 580.102 217.875, 541.506 218.150 C 529.953 218.232, 519.150 218.457, 517.500 218.649 M 261.261 415.752 C 255.595 431.453, 250.745 451.156, 247.907 470.008 C 245.888 483.419, 245.571 489.328, 245.549 514 C 245.525 540.320, 245.728 543.724, 248.200 558.500 C 256.188 606.242, 273.233 648.121, 300.196 686.250 C 303.988 691.612, 307.680 696, 308.400 696 C 309.907 696, 322.586 684.642, 323.974 682.049 C 324.688 680.715, 323.743 678.737, 319.846 673.410 C 303.081 650.487, 287.915 618.678, 279.362 588.500 C 271.606 561.132, 269.526 545.169, 269.526 513 C 269.526 479.553, 271.957 462.473, 281.023 432.233 C 283.210 424.936, 285 418.402, 285 417.713 C 285 417.024, 281.925 414.563, 278.168 412.244 C 274.410 409.925, 270.515 407.122, 269.513 406.014 C 268.510 404.906, 267.197 404.001, 266.595 404.002 C 265.993 404.003, 263.592 409.291, 261.261 415.752 M 811.724 421.018 L 802.948 429.887 805.856 439.694 C 817.917 480.359, 818.906 531.955, 808.478 576.578 C 800.001 612.856, 783.779 648.271, 763.316 675.174 C 760.942 678.295, 759 681.475, 759 682.242 C 759 683.815, 773.204 698, 774.780 698 C 777.078 698, 793.833 673.676, 803.366 656.500 C 819.953 626.616, 832.541 588.396, 836.961 554.500 C 837.534 550.100, 838.225 544.925, 838.495 543 C 838.765 541.075, 839.269 531.175, 839.615 521 C 840.523 494.269, 837.548 467.803, 830.483 439.761 C 828.123 430.397, 821.930 411.989, 821.167 412.074 C 820.800 412.115, 816.551 416.140, 811.724 421.018 M 571.841 560.750 C 563.270 569.413, 555.745 577.492, 555.119 578.703 C 553.744 581.361, 553.816 581.452, 575.990 605 C 584.535 614.075, 594.418 624.650, 597.951 628.500 C 601.485 632.350, 614.502 646.300, 626.878 659.500 C 639.254 672.700, 655.287 689.800, 662.506 697.500 C 669.725 705.200, 686.577 723.200, 699.954 737.500 C 735.675 775.686, 747.626 787.640, 752.376 789.940 C 769.530 798.244, 789.039 790.612, 797.158 772.420 C 798.813 768.711, 799.361 765.530, 799.383 759.500 C 799.423 748.830, 796.576 743.275, 785.611 732.618 C 763.551 711.181, 749.713 697.852, 742.920 691.500 C 732.649 681.895, 698.879 649.867, 685.500 637.043 C 679.450 631.244, 669.990 622.224, 664.477 616.999 C 658.965 611.775, 646.365 599.822, 636.477 590.437 C 598.432 554.327, 588.482 545.009, 587.962 545.005 C 587.666 545.002, 580.412 552.087, 571.841 560.750 M 387.138 756.908 L 378.996 765.817 385.748 770.256 C 417.515 791.143, 461.139 807.497, 501.500 813.651 C 518.756 816.282, 566.309 816.277, 583.500 813.642 C 612.522 809.193, 645.570 798.745, 671.231 785.907 C 684.063 779.487, 702.395 768.817, 703.355 767.211 C 703.588 766.820, 700.011 762.515, 695.406 757.643 L 687.032 748.787 679.266 753.763 C 668.959 760.368, 653.823 767.889, 638.775 773.882 C 564.808 803.340, 477.042 796.578, 409 756.179 C 404.875 753.729, 400.306 750.887, 398.846 749.863 C 397.386 748.838, 395.986 748, 395.736 748 C 395.485 748, 391.616 752.009, 387.138 756.908" stroke="none" fill="#882121" fill-rule="evenodd"/><path d="M 0 531.001 L 0 1062.002 542.250 1061.751 L 1084.500 1061.500 1084.751 530.750 L 1085.002 0 542.501 0 L 0 0 0 531.001 M 0.496 531.500 C 0.496 823.550, 0.610 942.876, 0.750 796.668 C 0.890 650.461, 0.890 411.511, 0.750 265.668 C 0.610 119.826, 0.496 239.450, 0.496 531.500 M 252.303 178.048 C 246.553 179.184, 237.064 183.117, 230.355 187.145 C 219.257 193.808, 209.520 207.780, 205.368 223 C 202.894 232.070, 202.885 257.943, 205.352 270.500 C 213.830 313.663, 240.565 356.821, 278.500 388.582 C 284.032 393.213, 290.070 397.386, 299.020 402.764 C 304.950 406.327, 318.537 411.797, 328.261 414.537 C 340.732 418.050, 358.935 418.860, 375 416.617 C 392.766 414.136, 396.929 415.876, 411.590 431.907 C 416.918 437.733, 424.261 445.650, 427.907 449.500 C 431.553 453.350, 438.803 461.001, 444.018 466.502 C 449.233 472.003, 459.829 483.253, 467.564 491.502 C 479.796 504.546, 484.177 509.322, 492.159 518.313 C 493.071 519.341, 494.485 520.028, 495.301 519.841 C 497.700 519.289, 529 488.779, 529 486.992 C 529 486.094, 521.462 478.139, 512.250 469.314 C 479.127 437.585, 433.089 391.417, 430.482 387.317 C 427.244 382.224, 426.237 373.739, 427.944 365.934 C 434.130 337.645, 433.328 317.424, 425.143 295.343 C 415.942 270.522, 401.336 250.018, 376.420 226.943 C 350.910 203.318, 316.706 185.003, 286.957 179.039 C 276.358 176.915, 260.358 176.457, 252.303 178.048 M 781.252 184.295 C 779.319 185.012, 770.007 193.382, 758.252 204.969 C 737.282 225.637, 725.393 237.213, 680.229 280.936 C 664.680 295.989, 649.991 311.061, 647.588 314.429 C 641.757 322.600, 634.430 337.276, 632.259 345.133 C 630.749 350.601, 630.539 355.193, 630.776 377.644 C 631.031 401.863, 630.902 404.187, 629.020 409.216 C 627.191 414.105, 623.777 417.823, 594.712 446.572 C 548.688 492.099, 515.321 524.682, 473.991 564.461 C 467.111 571.082, 454.722 583.025, 446.461 591 C 438.199 598.975, 426.951 609.775, 421.466 615 C 415.981 620.225, 405.842 629.900, 398.937 636.500 C 392.031 643.100, 381.683 652.970, 375.940 658.434 C 370.198 663.897, 360.314 673.347, 353.975 679.434 C 347.637 685.520, 338.631 694.100, 333.961 698.500 C 283.037 746.486, 283.564 745.844, 283.524 760 C 283.503 767.469, 283.860 769.211, 286.469 774.359 C 294.355 789.924, 313.801 796.914, 329.289 789.752 C 336.375 786.475, 336.341 786.509, 383.435 736.009 C 387.799 731.329, 394.788 723.900, 398.966 719.500 C 406.272 711.807, 415.368 702.144, 432.384 684 C 436.768 679.325, 443.988 671.667, 448.427 666.982 C 452.867 662.296, 464.150 650.382, 473.500 640.505 C 482.850 630.628, 495.035 617.811, 500.579 612.023 C 506.122 606.236, 514.447 597.477, 519.079 592.560 C 544.632 565.434, 585.739 523.009, 640.332 467.419 C 661.261 446.108, 666.452 444.306, 691.902 449.515 C 703.642 451.918, 706.804 452.192, 717.402 451.721 C 732.302 451.060, 742.040 448.586, 755.500 442.044 C 765.801 437.038, 775.138 430.525, 783 422.862 C 787.791 418.193, 806.062 398.778, 828.045 375 C 835.417 367.025, 841.911 360.013, 842.475 359.417 C 845.886 355.814, 863.617 336.594, 864.982 335.021 C 865.885 333.979, 872.312 327.099, 879.264 319.730 C 895.354 302.678, 899.689 297.405, 900.315 294.132 C 901.421 288.349, 895.545 281, 889.815 281 C 883.923 281, 885.911 279.176, 838.047 328.510 C 796.407 371.429, 772.279 395.325, 769.276 396.617 C 766.487 397.818, 765.537 397.799, 762.225 396.473 C 755.114 393.628, 752.827 385.333, 757.432 379.092 C 758.770 377.278, 783.266 352.279, 811.867 323.538 C 840.468 294.797, 865.024 269.581, 866.435 267.501 C 874.272 255.952, 861.273 243.360, 850.094 251.673 C 848.117 253.143, 825.350 275.374, 799.500 301.074 C 739.536 360.692, 737.286 362.815, 733.233 363.598 C 728.865 364.442, 724.203 362.380, 721.885 358.580 C 717.819 351.911, 720.233 346.485, 732.093 335.643 C 745.557 323.336, 832.210 236.370, 833.570 233.800 C 838.192 225.070, 830.768 214.719, 821.153 216.485 C 818.036 217.057, 812.806 221.815, 785.500 248.921 C 734.207 299.838, 705.977 326.970, 702.316 328.868 C 697.913 331.150, 694.023 330.258, 689.754 325.989 C 685.976 322.211, 685.773 321.708, 686.264 317.351 C 686.777 312.798, 687.346 312.162, 722.267 277.113 C 767.230 231.984, 791.472 207.104, 794.570 202.906 C 798.257 197.907, 797.940 191.958, 793.750 187.556 C 790.021 183.639, 785.912 182.567, 781.252 184.295 M 517.500 218.649 C 515.850 218.842, 510.225 219.487, 505 220.084 C 478.611 223.096, 449.090 231.450, 425.750 242.509 C 419.590 245.428, 419.012 246.351, 421.750 248.885 C 424.460 251.393, 427.485 256.042, 429.773 261.218 L 431.859 265.935 442.179 261.623 C 463.601 252.671, 487.939 246.140, 512 242.888 C 524.166 241.243, 559.673 241.229, 572 242.863 C 601.149 246.729, 630.339 255.233, 653.144 266.503 C 657.036 268.427, 660.551 270, 660.956 270 C 662.617 270, 678.073 253.633, 677.593 252.382 C 676.984 250.795, 658.362 241.719, 645.078 236.536 C 611.576 223.462, 580.102 217.875, 541.506 218.150 C 529.953 218.232, 519.150 218.457, 517.500 218.649 M 261.261 415.752 C 255.595 431.453, 250.745 451.156, 247.907 470.008 C 245.888 483.419, 245.571 489.328, 245.549 514 C 245.525 540.320, 245.728 543.724, 248.200 558.500 C 256.188 606.242, 273.233 648.121, 300.196 686.250 C 303.988 691.612, 307.680 696, 308.400 696 C 309.907 696, 322.586 684.642, 323.974 682.049 C 324.688 680.715, 323.743 678.737, 319.846 673.410 C 303.081 650.487, 287.915 618.678, 279.362 588.500 C 271.606 561.132, 269.526 545.169, 269.526 513 C 269.526 479.553, 271.957 462.473, 281.023 432.233 C 283.210 424.936, 285 418.402, 285 417.713 C 285 417.024, 281.925 414.563, 278.168 412.244 C 274.410 409.925, 270.515 407.122, 269.513 406.014 C 268.510 404.906, 267.197 404.001, 266.595 404.002 C 265.993 404.003, 263.592 409.291, 261.261 415.752 M 811.724 421.018 L 802.948 429.887 805.856 439.694 C 817.917 480.359, 818.906 531.955, 808.478 576.578 C 800.001 612.856, 783.779 648.271, 763.316 675.174 C 760.942 678.295, 759 681.475, 759 682.242 C 759 683.815, 773.204 698, 774.780 698 C 777.078 698, 793.833 673.676, 803.366 656.500 C 819.953 626.616, 832.541 588.396, 836.961 554.500 C 837.534 550.100, 838.225 544.925, 838.495 543 C 838.765 541.075, 839.269 531.175, 839.615 521 C 840.523 494.269, 837.548 467.803, 830.483 439.761 C 828.123 430.397, 821.930 411.989, 821.167 412.074 C 820.800 412.115, 816.551 416.140, 811.724 421.018 M 571.841 560.750 C 563.270 569.413, 555.745 577.492, 555.119 578.703 C 553.744 581.361, 553.816 581.452, 575.990 605 C 584.535 614.075, 594.418 624.650, 597.951 628.500 C 601.485 632.350, 614.502 646.300, 626.878 659.500 C 639.254 672.700, 655.287 689.800, 662.506 697.500 C 669.725 705.200, 686.577 723.200, 699.954 737.500 C 735.675 775.686, 747.626 787.640, 752.376 789.940 C 769.530 798.244, 789.039 790.612, 797.158 772.420 C 798.813 768.711, 799.361 765.530, 799.383 759.500 C 799.423 748.830, 796.576 743.275, 785.611 732.618 C 763.551 711.181, 749.713 697.852, 742.920 691.500 C 732.649 681.895, 698.879 649.867, 685.500 637.043 C 679.450 631.244, 669.990 622.224, 664.477 616.999 C 658.965 611.775, 646.365 599.822, 636.477 590.437 C 598.432 554.327, 588.482 545.009, 587.962 545.005 C 587.666 545.002, 580.412 552.087, 571.841 560.750 M 387.138 756.908 L 378.996 765.817 385.748 770.256 C 417.515 791.143, 461.139 807.497, 501.500 813.651 C 518.756 816.282, 566.309 816.277, 583.500 813.642 C 612.522 809.193, 645.570 798.745, 671.231 785.907 C 684.063 779.487, 702.395 768.817, 703.355 767.211 C 703.588 766.820, 700.011 762.515, 695.406 757.643 L 687.032 748.787 679.266 753.763 C 668.959 760.368, 653.823 767.889, 638.775 773.882 C 564.808 803.340, 477.042 796.578, 409 756.179 C 404.875 753.729, 400.306 750.887, 398.846 749.863 C 397.386 748.838, 395.986 748, 395.736 748 C 395.485 748, 391.616 752.009, 387.138 756.908" stroke="none" fill="#fbfbf3" fill-rule="evenodd"/></svg>